<?xml version="1.0" standalone="no"?>
<!DOCTYPE svg PUBLIC "-//W3C//DTD SVG 20010904//EN"
 "http://www.w3.org/TR/2001/REC-SVG-20010904/DTD/svg10.dtd">
<svg version="1.0" xmlns="http://www.w3.org/2000/svg"
 width="12500.000000pt" height="12500.000000pt" viewBox="0 0 12500.000000 12500.000000"
 preserveAspectRatio="xMidYMid meet">

<g transform="translate(0.000000,12500.000000) scale(0.100000,-0.100000)"
fill="#000000" stroke="none">
<path d="M62070 121060 c-173 -4 -366 -14 -445 -23 -77 -9 -176 -17 -220 -17
-100 0 -394 -33 -580 -65 -201 -34 -211 -35 -446 -45 -174 -7 -234 -14 -319
-34 -58 -15 -193 -42 -300 -61 -107 -19 -249 -45 -315 -58 -66 -14 -142 -28
-170 -32 -27 -4 -72 -15 -100 -25 -27 -10 -72 -21 -100 -25 -113 -14 -420 -80
-560 -120 -82 -24 -188 -51 -235 -60 -47 -9 -124 -30 -171 -46 -47 -16 -135
-38 -195 -49 -60 -12 -149 -34 -199 -50 -127 -41 -404 -120 -421 -120 -8 0
-70 -18 -137 -39 -67 -22 -158 -49 -202 -61 -44 -12 -98 -30 -120 -40 -22 -10
-60 -23 -85 -30 -85 -22 -225 -68 -340 -113 -66 -25 -143 -48 -180 -52 -47 -5
-116 -29 -245 -82 -168 -71 -268 -107 -456 -168 -42 -14 -110 -39 -150 -56
-41 -17 -94 -37 -119 -44 -25 -8 -94 -34 -155 -60 -60 -26 -173 -68 -250 -95
-77 -26 -183 -69 -235 -95 -52 -26 -124 -59 -160 -72 -36 -14 -93 -37 -126
-53 -34 -16 -97 -38 -140 -50 -44 -12 -99 -34 -124 -50 -25 -15 -63 -33 -85
-40 -47 -14 -66 -23 -200 -85 -55 -26 -131 -58 -169 -71 -37 -13 -107 -45
-155 -70 -197 -107 -228 -122 -261 -129 -40 -8 -208 -76 -260 -104 -71 -40
-227 -114 -289 -137 -35 -14 -82 -37 -105 -53 -22 -15 -64 -36 -93 -45 -29
-10 -101 -46 -160 -82 -59 -35 -119 -67 -133 -71 -14 -3 -55 -21 -92 -39 -37
-19 -88 -42 -115 -52 -27 -10 -141 -68 -253 -129 -113 -60 -228 -118 -256
-127 -28 -9 -73 -31 -99 -49 -27 -18 -75 -49 -107 -70 -33 -22 -84 -45 -117
-53 -39 -9 -85 -30 -133 -63 -40 -27 -122 -74 -183 -104 -60 -30 -139 -72
-175 -92 -36 -21 -83 -47 -105 -58 -22 -11 -114 -60 -205 -110 -91 -50 -208
-113 -260 -140 -52 -27 -102 -55 -110 -62 -8 -7 -46 -29 -85 -48 -38 -20 -118
-64 -177 -99 -59 -35 -135 -79 -169 -98 -34 -19 -126 -77 -203 -129 -78 -51
-174 -109 -215 -128 -41 -19 -135 -72 -210 -118 -75 -45 -155 -92 -177 -103
-23 -12 -97 -57 -165 -101 -68 -44 -162 -103 -208 -133 -46 -29 -105 -67 -130
-84 -89 -59 -257 -162 -306 -187 -49 -25 -195 -118 -370 -237 -187 -127 -441
-293 -480 -312 -51 -26 -222 -137 -300 -195 -155 -114 -634 -445 -779 -537
-33 -22 -93 -65 -132 -97 -69 -55 -132 -99 -224 -153 -25 -15 -84 -57 -132
-94 -48 -37 -100 -75 -115 -84 -63 -37 -243 -166 -302 -216 -34 -29 -84 -63
-109 -76 -26 -14 -87 -61 -137 -106 -81 -74 -129 -109 -343 -255 -33 -22 -102
-75 -153 -116 -52 -42 -121 -94 -154 -116 -34 -23 -67 -49 -75 -58 -8 -9 -43
-37 -79 -63 -37 -25 -93 -71 -127 -101 -63 -58 -180 -148 -310 -238 -41 -29
-114 -85 -162 -126 -48 -40 -101 -84 -118 -97 -86 -69 -242 -197 -264 -217
-14 -13 -56 -41 -95 -62 -38 -22 -92 -63 -120 -91 -27 -28 -72 -68 -100 -88
-27 -20 -90 -70 -138 -112 -49 -41 -107 -90 -130 -108 -23 -19 -107 -91 -186
-160 -207 -183 -278 -239 -351 -282 -36 -21 -109 -76 -163 -122 -54 -45 -118
-99 -141 -118 -89 -72 -285 -247 -386 -346 -58 -56 -120 -108 -136 -117 -17
-9 -57 -46 -89 -84 -32 -37 -84 -88 -115 -113 -75 -59 -190 -153 -216 -176
-334 -297 -479 -430 -576 -526 -65 -65 -142 -135 -170 -156 -29 -22 -73 -61
-98 -87 -25 -25 -75 -71 -111 -100 -37 -30 -107 -92 -155 -139 -49 -46 -109
-100 -134 -119 -25 -19 -88 -79 -141 -133 -53 -55 -131 -128 -174 -164 -44
-36 -98 -91 -122 -122 -26 -33 -71 -74 -111 -101 -37 -24 -85 -65 -106 -91
-50 -61 -548 -559 -797 -796 -107 -102 -205 -198 -218 -215 -40 -49 -326 -357
-441 -474 -205 -210 -357 -378 -382 -422 -19 -33 -43 -57 -75 -75 -66 -38 -80
-51 -119 -111 -18 -29 -84 -104 -146 -167 -185 -187 -316 -328 -349 -376 -17
-25 -64 -79 -104 -120 -41 -41 -91 -96 -112 -122 -21 -26 -96 -109 -168 -186
-142 -153 -253 -279 -459 -522 -35 -41 -82 -89 -103 -107 -32 -25 -219 -247
-401 -476 -18 -23 -67 -77 -108 -121 -42 -43 -88 -97 -102 -120 -36 -56 -148
-194 -312 -384 -75 -87 -150 -177 -167 -202 -17 -25 -62 -81 -100 -125 -38
-44 -79 -93 -92 -110 -12 -16 -51 -61 -86 -100 -114 -126 -230 -268 -289 -355
-56 -81 -142 -194 -233 -304 -24 -28 -78 -93 -120 -145 -43 -51 -105 -132
-138 -180 -33 -48 -99 -135 -146 -192 -89 -108 -205 -260 -297 -389 -148 -207
-297 -410 -428 -582 -38 -51 -126 -176 -193 -278 -68 -102 -154 -223 -191
-270 -36 -47 -82 -107 -100 -135 -18 -27 -54 -75 -80 -105 -26 -30 -55 -68
-65 -85 -20 -32 -275 -420 -359 -545 -27 -41 -78 -112 -112 -157 -35 -46 -76
-111 -93 -145 -17 -35 -51 -88 -76 -118 -25 -30 -62 -82 -82 -115 -20 -33 -55
-83 -77 -111 -23 -28 -84 -117 -136 -198 -52 -81 -137 -211 -189 -289 -52 -78
-108 -169 -124 -202 -16 -33 -42 -76 -56 -95 -15 -19 -47 -71 -72 -114 -24
-44 -65 -102 -90 -130 -25 -28 -57 -77 -72 -108 -14 -32 -41 -81 -60 -110 -87
-134 -129 -202 -151 -246 -13 -26 -44 -77 -68 -113 -27 -40 -49 -88 -57 -121
-10 -48 -22 -66 -78 -125 -36 -37 -75 -88 -86 -113 -11 -25 -48 -91 -83 -147
-35 -55 -64 -105 -64 -110 0 -4 -23 -46 -51 -93 -166 -274 -290 -494 -365
-643 -25 -48 -65 -119 -90 -158 -24 -39 -71 -121 -103 -182 -32 -62 -74 -137
-93 -167 -103 -159 -188 -306 -188 -325 0 -11 -25 -63 -56 -115 -31 -52 -99
-178 -151 -279 -51 -102 -98 -190 -103 -195 -4 -6 -38 -72 -75 -146 -37 -74
-76 -144 -86 -155 -9 -11 -25 -42 -34 -70 -16 -46 -186 -386 -233 -465 -11
-19 -31 -62 -43 -94 -25 -68 -167 -334 -205 -383 -14 -18 -29 -55 -33 -81 -4
-27 -36 -104 -73 -177 -37 -72 -88 -179 -113 -240 -26 -60 -83 -183 -126 -272
-43 -89 -79 -165 -79 -169 0 -4 -23 -52 -51 -107 -28 -55 -59 -121 -69 -146
-21 -53 -138 -315 -200 -446 -23 -49 -57 -128 -75 -175 -93 -239 -156 -393
-193 -467 -30 -60 -155 -356 -193 -459 -12 -32 -32 -75 -45 -94 -13 -19 -32
-69 -43 -111 -27 -103 -61 -195 -141 -384 -81 -193 -124 -305 -140 -364 -6
-24 -43 -123 -82 -220 -105 -262 -221 -583 -341 -936 -71 -213 -118 -350 -157
-460 -15 -44 -46 -134 -68 -200 -22 -66 -57 -166 -77 -223 -20 -57 -42 -138
-50 -181 -7 -42 -22 -93 -34 -112 -19 -32 -50 -139 -86 -294 -9 -38 -34 -114
-55 -168 -22 -54 -47 -139 -55 -190 -9 -50 -25 -116 -36 -147 -11 -30 -31 -93
-45 -140 -14 -47 -38 -125 -53 -175 -16 -49 -32 -110 -36 -135 -4 -25 -22 -94
-41 -153 -18 -60 -45 -164 -58 -232 -14 -68 -41 -173 -60 -232 -19 -59 -51
-180 -71 -268 -20 -88 -54 -216 -76 -285 -21 -69 -43 -161 -48 -205 -6 -44
-24 -124 -40 -178 -17 -54 -38 -135 -46 -180 -9 -45 -26 -129 -40 -187 -13
-58 -27 -130 -30 -160 -4 -30 -18 -89 -30 -130 -13 -41 -35 -136 -50 -210 -15
-74 -35 -169 -45 -210 -29 -116 -78 -375 -91 -478 -6 -51 -26 -159 -46 -240
-37 -156 -58 -283 -93 -557 -12 -93 -37 -246 -55 -340 -44 -227 -111 -664
-145 -945 -5 -47 -16 -128 -24 -180 -16 -99 -28 -206 -51 -450 -36 -371 -75
-736 -95 -894 -11 -81 -20 -192 -20 -245 -1 -53 -5 -143 -10 -201 -5 -58 -14
-179 -20 -270 -6 -91 -19 -223 -30 -295 -39 -257 -43 -373 -56 -1645 -9 -748
-4 -816 67 -1066 50 -178 106 -334 141 -391 10 -18 29 -74 42 -125 26 -102 43
-147 106 -283 23 -49 63 -148 90 -220 26 -71 74 -191 105 -265 31 -74 76 -189
100 -255 45 -125 100 -261 155 -380 18 -38 45 -106 60 -150 29 -82 68 -176
138 -325 21 -47 47 -110 57 -140 21 -64 139 -334 161 -368 8 -12 31 -68 50
-122 19 -55 45 -124 59 -153 13 -29 34 -80 46 -113 12 -32 25 -63 29 -69 11
-14 116 -254 125 -285 9 -30 63 -158 155 -370 175 -401 245 -566 259 -609 6
-19 29 -65 51 -103 22 -38 46 -90 53 -116 8 -26 24 -67 35 -92 11 -25 47 -107
81 -182 33 -75 69 -154 81 -175 11 -21 20 -41 20 -46 0 -5 23 -57 51 -115 28
-59 60 -134 71 -167 11 -32 37 -93 58 -135 21 -41 67 -142 103 -225 36 -82
105 -231 155 -330 49 -99 103 -218 120 -265 17 -47 74 -175 127 -285 53 -110
106 -225 117 -255 12 -30 27 -64 34 -75 7 -11 33 -66 58 -121 25 -56 67 -149
94 -206 27 -58 57 -131 67 -164 9 -32 30 -84 47 -114 56 -101 184 -364 209
-428 13 -35 32 -72 42 -83 10 -11 29 -50 41 -87 13 -37 34 -89 48 -117 14 -27
29 -61 33 -74 4 -14 23 -48 41 -77 19 -29 34 -58 34 -64 0 -6 18 -42 39 -78
21 -37 76 -146 121 -242 45 -96 120 -254 167 -350 48 -96 115 -236 150 -310
35 -74 68 -143 73 -153 21 -36 183 -362 310 -622 193 -396 328 -667 433 -870
51 -99 153 -297 226 -440 73 -143 136 -264 141 -270 7 -9 123 -239 260 -515
34 -69 68 -132 76 -140 7 -9 23 -38 35 -65 12 -28 39 -73 60 -100 21 -28 50
-78 65 -110 14 -33 50 -103 80 -155 29 -52 60 -115 69 -140 9 -24 35 -78 59
-120 125 -216 168 -296 200 -370 20 -44 75 -145 123 -223 47 -78 105 -186 129
-239 23 -54 71 -144 105 -200 87 -144 385 -687 413 -753 7 -16 49 -88 93 -160
43 -71 108 -182 143 -245 35 -63 76 -133 91 -155 42 -64 172 -291 227 -400 28
-55 71 -134 96 -175 25 -41 61 -104 82 -140 20 -36 81 -138 135 -227 54 -89
110 -185 124 -215 24 -47 96 -167 160 -268 13 -19 48 -84 79 -143 30 -60 68
-125 84 -145 16 -20 41 -59 57 -87 16 -27 56 -93 90 -145 34 -52 104 -164 156
-249 52 -84 117 -188 145 -230 29 -43 66 -105 83 -139 17 -34 64 -113 105
-175 40 -61 87 -140 106 -174 18 -35 48 -74 66 -88 35 -26 93 -123 113 -187 9
-25 28 -49 66 -77 41 -31 61 -57 89 -112 41 -81 45 -129 17 -175 -32 -53 -79
-68 -194 -61 -77 4 -117 1 -176 -13 -706 -169 -843 -200 -882 -200 -19 0 -61
-12 -94 -26 -33 -13 -125 -41 -205 -60 -80 -20 -192 -51 -250 -70 -58 -19
-143 -43 -190 -53 -47 -11 -133 -38 -193 -60 -59 -23 -113 -41 -120 -41 -8 0
-94 -27 -193 -60 -98 -32 -215 -71 -259 -85 -126 -42 -260 -93 -391 -151 -67
-29 -144 -59 -170 -65 -66 -17 -314 -107 -339 -123 -11 -7 -46 -21 -77 -30
-31 -9 -118 -48 -194 -86 -76 -39 -154 -75 -175 -80 -34 -10 -330 -150 -419
-198 -44 -25 -240 -119 -340 -165 -41 -19 -109 -54 -150 -78 -41 -25 -106 -58
-143 -74 -37 -15 -70 -32 -73 -36 -2 -4 -30 -20 -62 -34 -184 -86 -231 -111
-272 -140 -25 -18 -74 -48 -110 -66 -90 -45 -236 -130 -306 -177 -33 -22 -75
-48 -94 -57 -19 -10 -92 -55 -162 -101 -69 -45 -146 -93 -170 -104 -24 -12
-63 -39 -88 -59 -62 -51 -240 -172 -369 -251 -58 -36 -164 -107 -234 -158 -70
-50 -148 -104 -173 -118 -25 -15 -48 -33 -51 -40 -3 -7 -28 -28 -56 -46 -28
-18 -86 -62 -128 -98 -148 -126 -195 -163 -294 -232 -55 -38 -145 -105 -200
-148 -55 -44 -142 -111 -194 -151 -62 -47 -102 -87 -120 -117 -39 -68 -73 -99
-122 -112 -32 -8 -58 -26 -95 -65 -28 -29 -99 -94 -158 -144 -141 -118 -596
-550 -756 -716 -68 -71 -194 -203 -280 -291 -234 -244 -353 -372 -416 -449
-32 -38 -92 -106 -135 -150 -55 -57 -80 -93 -90 -124 -9 -30 -26 -54 -58 -79
-97 -80 -195 -188 -291 -322 -30 -41 -73 -97 -96 -125 -23 -27 -63 -81 -89
-120 -51 -74 -126 -170 -210 -270 -92 -108 -172 -218 -245 -339 -40 -66 -109
-170 -154 -233 -84 -118 -127 -180 -223 -323 -32 -47 -72 -105 -91 -129 -18
-24 -39 -59 -47 -77 -16 -38 -84 -153 -160 -269 -29 -44 -64 -103 -78 -130
-14 -28 -47 -84 -75 -125 -27 -41 -68 -111 -92 -155 -23 -44 -72 -125 -109
-180 -36 -55 -75 -130 -87 -167 -27 -80 -47 -119 -89 -178 -18 -25 -40 -66
-49 -92 -8 -26 -36 -80 -62 -120 -50 -78 -104 -185 -104 -206 0 -7 -20 -52
-44 -100 -25 -48 -68 -139 -96 -202 -71 -160 -104 -225 -148 -296 -21 -33 -43
-85 -50 -114 -7 -29 -23 -79 -37 -109 -13 -31 -41 -101 -61 -156 -20 -55 -59
-147 -86 -204 -54 -114 -98 -237 -98 -273 0 -13 -11 -39 -23 -58 -13 -19 -46
-93 -72 -165 -27 -71 -70 -184 -96 -251 -26 -66 -54 -156 -63 -200 -8 -43 -34
-126 -57 -184 -22 -58 -50 -134 -60 -170 -11 -36 -37 -119 -59 -185 -22 -66
-55 -188 -74 -272 -19 -83 -44 -169 -54 -190 -11 -21 -23 -61 -27 -88 -15
-101 -87 -413 -117 -500 -16 -49 -38 -147 -49 -216 -10 -70 -26 -148 -35 -175
-21 -62 -121 -572 -135 -689 -6 -49 -26 -184 -45 -300 -19 -115 -42 -291 -50
-390 -17 -213 -28 -315 -54 -491 -11 -71 -24 -186 -30 -255 -6 -68 -18 -153
-26 -189 -8 -36 -28 -126 -44 -200 -16 -74 -40 -171 -54 -216 -14 -44 -30
-127 -36 -185 -13 -121 -32 -228 -65 -354 -13 -49 -37 -155 -54 -235 -33 -161
-66 -306 -81 -362 -6 -21 -28 -140 -50 -265 -21 -126 -50 -280 -64 -343 -35
-154 -68 -305 -107 -480 -17 -80 -39 -163 -49 -185 -12 -26 -26 -110 -40 -230
-13 -118 -34 -239 -55 -320 -18 -71 -41 -164 -50 -205 -9 -41 -29 -129 -45
-195 -15 -66 -31 -147 -35 -180 -3 -33 -13 -82 -21 -110 -8 -27 -21 -95 -30
-151 -8 -55 -26 -143 -39 -195 -34 -127 -51 -207 -69 -314 -8 -49 -26 -139
-39 -200 -14 -60 -35 -159 -47 -220 -12 -60 -34 -155 -47 -210 -14 -55 -31
-154 -39 -220 -8 -65 -30 -178 -49 -250 -19 -71 -57 -242 -84 -380 -28 -137
-58 -270 -67 -294 -8 -25 -33 -150 -54 -278 -22 -128 -50 -275 -64 -326 -13
-50 -27 -123 -31 -161 -4 -38 -29 -155 -56 -260 -54 -207 -94 -396 -104 -491
-7 -63 -28 -159 -101 -460 -24 -99 -49 -216 -55 -260 -5 -44 -21 -127 -34
-185 -26 -112 -67 -328 -84 -448 -6 -40 -20 -100 -31 -135 -10 -34 -49 -206
-86 -381 -37 -176 -77 -343 -89 -370 -17 -38 -24 -78 -29 -161 -3 -60 -15
-148 -26 -195 -35 -142 -99 -439 -120 -550 -29 -161 -49 -258 -70 -340 -10
-41 -33 -149 -50 -240 -17 -91 -38 -187 -46 -215 -8 -27 -21 -93 -29 -145 -24
-158 -82 -429 -114 -530 -19 -60 -41 -172 -61 -305 -16 -115 -43 -259 -59
-320 -16 -60 -37 -153 -46 -205 -9 -52 -22 -117 -30 -144 -8 -28 -22 -91 -31
-140 -8 -50 -28 -143 -44 -207 -16 -64 -38 -169 -49 -235 -11 -65 -26 -137
-34 -159 -8 -22 -20 -74 -27 -115 -7 -41 -23 -120 -36 -175 -13 -55 -33 -157
-44 -226 -11 -69 -39 -208 -64 -310 -24 -101 -46 -215 -50 -253 -3 -38 -23
-139 -45 -225 -22 -86 -49 -203 -60 -261 -12 -58 -26 -130 -32 -160 -6 -30
-26 -118 -44 -195 -18 -77 -36 -169 -40 -205 -9 -85 -60 -354 -85 -450 -11
-41 -27 -109 -35 -150 -7 -41 -28 -136 -45 -210 -17 -74 -38 -177 -46 -228 -8
-51 -21 -109 -29 -129 -9 -20 -27 -111 -40 -202 -14 -91 -30 -182 -35 -201 -5
-19 -21 -93 -35 -165 -14 -71 -37 -168 -50 -215 -14 -47 -29 -119 -35 -160 -6
-41 -21 -115 -35 -165 -14 -49 -43 -187 -65 -305 -22 -118 -51 -258 -65 -310
-13 -52 -26 -120 -30 -150 -10 -85 -102 -519 -129 -611 -9 -30 -21 -99 -27
-154 -5 -55 -36 -208 -69 -340 -32 -132 -66 -287 -75 -345 -24 -156 -35 -206
-57 -269 -10 -31 -30 -132 -44 -226 -16 -105 -37 -204 -55 -258 -18 -52 -47
-184 -69 -315 -44 -255 -72 -386 -95 -452 -9 -25 -21 -85 -26 -135 -13 -129
-44 -282 -99 -500 -56 -221 -85 -358 -101 -470 -5 -44 -21 -123 -34 -175 -13
-52 -38 -172 -54 -265 -17 -94 -37 -188 -44 -210 -8 -22 -18 -65 -22 -95 -6
-50 -19 -123 -72 -390 -9 -47 -29 -125 -45 -175 -34 -104 -55 -249 -68 -457
-5 -81 -11 -152 -15 -158 -3 -5 -10 -87 -16 -182 -5 -95 -16 -241 -24 -324
-24 -246 -37 -584 -30 -819 6 -219 11 -286 40 -570 17 -172 30 -315 45 -535
16 -213 26 -278 60 -389 21 -66 30 -116 30 -163 0 -74 34 -247 79 -403 16 -56
41 -154 56 -219 14 -65 41 -159 59 -210 19 -51 39 -124 45 -162 6 -38 40 -154
77 -259 36 -104 77 -224 91 -265 47 -142 85 -235 164 -407 43 -95 86 -191 95
-215 9 -24 50 -115 91 -203 204 -439 207 -443 287 -535 44 -51 70 -103 86
-175 7 -30 35 -87 69 -140 32 -49 75 -119 96 -155 48 -80 214 -326 324 -480
83 -117 116 -159 241 -310 39 -47 78 -98 87 -115 16 -30 72 -106 167 -228 91
-116 510 -547 781 -803 294 -278 321 -302 443 -395 67 -52 157 -121 200 -154
43 -33 144 -107 223 -165 79 -58 169 -128 200 -157 30 -29 75 -59 99 -68 23
-8 86 -46 139 -84 87 -63 293 -191 307 -191 3 0 33 -19 67 -42 158 -107 494
-288 585 -314 31 -9 70 -28 86 -41 37 -31 145 -85 216 -108 30 -10 60 -22 66
-27 7 -5 39 -19 73 -33 33 -13 111 -51 172 -85 65 -36 136 -66 172 -75 75 -17
283 -89 392 -137 95 -41 199 -77 430 -148 236 -73 293 -87 431 -110 69 -11
177 -38 251 -64 154 -52 162 -53 364 -66 85 -6 197 -19 247 -30 50 -11 137
-24 194 -29 57 -6 171 -19 253 -30 475 -63 436 -61 1326 -63 453 -1 18487 -2
40074 -2 37120 -1 39258 0 39395 16 80 10 188 20 240 23 134 9 395 41 600 75
96 15 236 33 310 40 178 15 201 19 430 77 107 28 249 63 315 78 66 16 156 41
200 56 44 16 127 38 185 49 65 13 132 34 176 55 39 19 78 35 88 35 9 0 38 9
64 19 230 93 337 133 392 147 36 8 101 36 145 61 44 25 118 56 165 70 127 36
760 347 955 468 55 34 116 70 135 80 19 10 80 48 135 85 55 37 173 114 263
170 90 56 186 124 215 149 29 26 84 69 122 96 39 26 96 72 127 100 31 29 83
68 115 86 32 18 81 54 108 80 28 25 71 61 96 80 96 70 240 191 291 245 29 31
71 68 93 84 57 41 569 552 701 701 61 68 148 169 194 224 46 55 89 105 96 110
7 6 46 55 88 110 41 55 118 156 171 225 52 68 95 127 95 131 0 13 73 114 130
179 48 56 150 210 267 403 17 28 51 83 74 122 24 38 56 96 71 128 15 32 48 89
73 128 42 65 88 156 328 649 46 96 110 240 142 320 31 80 61 150 66 155 17 23
91 214 110 289 11 44 26 91 33 105 19 38 123 350 131 391 3 19 26 98 49 175
42 132 139 515 171 672 8 40 22 126 30 190 8 65 26 163 40 218 29 117 61 445
75 770 5 121 17 292 25 380 28 296 29 557 6 895 -12 168 -28 399 -36 513 -8
115 -17 212 -19 215 -2 4 -9 96 -16 205 -12 202 -18 236 -64 390 -14 49 -33
135 -42 190 -9 56 -24 134 -34 172 -11 39 -26 113 -35 165 -9 52 -22 118 -30
145 -8 28 -21 100 -29 160 -9 61 -31 171 -50 246 -19 74 -37 157 -41 185 -8
66 -30 174 -66 324 -54 225 -119 548 -129 648 -6 53 -22 129 -35 167 -26 78
-60 235 -105 489 -17 93 -42 205 -56 250 -14 44 -36 162 -50 261 -16 115 -34
203 -50 245 -14 36 -42 160 -64 275 -21 116 -59 296 -83 400 -25 105 -48 228
-52 274 -3 46 -18 118 -31 160 -13 42 -29 103 -34 136 -5 33 -26 125 -45 205
-20 80 -44 195 -55 255 -10 61 -26 130 -35 155 -9 25 -25 101 -35 170 -11 69
-27 172 -35 230 -9 58 -25 139 -36 180 -28 101 -45 175 -70 300 -49 243 -88
427 -98 455 -12 34 -36 179 -46 270 -3 33 -19 103 -35 155 -15 52 -42 169 -60
260 -33 175 -57 289 -114 540 -20 85 -43 209 -52 275 -8 66 -22 147 -30 180
-8 33 -19 85 -25 115 -5 30 -18 93 -29 140 -10 47 -31 141 -46 210 -14 69 -43
190 -64 270 -29 111 -41 181 -50 295 -10 124 -17 162 -40 222 -16 40 -41 128
-55 195 -14 68 -39 182 -55 253 -16 72 -45 216 -65 320 -90 481 -111 583 -160
775 -13 52 -27 115 -30 140 -4 25 -22 108 -40 185 -37 156 -47 215 -70 392 -9
67 -28 164 -44 215 -48 155 -108 436 -177 823 -14 77 -40 203 -59 280 -18 77
-44 194 -56 260 -12 66 -49 244 -81 395 -70 323 -97 471 -98 521 0 21 -13 75
-29 120 -16 46 -39 134 -50 194 -12 61 -39 201 -61 312 -21 111 -50 234 -63
275 -16 44 -34 139 -47 243 -27 211 -34 248 -58 311 -11 27 -23 81 -27 119 -6
67 -79 388 -132 585 -14 52 -32 156 -40 230 -7 74 -22 164 -33 200 -49 166
-100 386 -110 481 -6 57 -22 142 -36 189 -13 47 -35 151 -49 231 -37 226 -55
317 -76 381 -17 56 -69 322 -84 433 -3 28 -26 123 -51 213 -25 90 -52 214 -60
275 -8 62 -21 135 -28 162 -8 28 -17 68 -20 90 -4 22 -20 94 -36 160 -65 267
-91 385 -105 480 -8 55 -28 153 -45 217 -16 64 -39 175 -49 245 -27 181 -93
493 -172 815 -22 86 -39 174 -39 195 0 21 -7 67 -16 103 -8 36 -19 99 -24 141
-5 42 -16 99 -24 125 -16 53 -87 372 -117 524 -10 52 -32 151 -49 220 -17 69
-41 195 -55 280 -14 85 -32 182 -39 215 -50 211 -69 296 -95 420 -16 77 -43
205 -61 285 -17 80 -37 203 -45 273 -9 77 -24 157 -39 200 -30 87 -104 405
-117 502 -53 402 -78 643 -79 756 0 58 -45 373 -80 559 -11 58 -24 146 -29
196 -5 50 -26 164 -46 255 -20 90 -47 223 -60 295 -13 73 -31 158 -39 190 -8
33 -22 111 -31 174 -8 63 -26 144 -39 180 -40 106 -59 182 -107 425 -11 55
-31 128 -44 162 -14 33 -38 121 -55 195 -16 73 -48 187 -69 253 -22 66 -56
170 -76 230 -20 61 -49 147 -65 192 -15 44 -36 117 -45 162 -9 44 -32 120 -52
168 -105 260 -158 401 -218 568 -29 83 -79 209 -112 280 -33 72 -64 141 -68
155 -4 14 -18 46 -31 72 -13 26 -33 82 -45 125 -13 47 -41 110 -70 158 -27 44
-60 113 -74 153 -13 41 -33 88 -44 105 -11 18 -36 70 -57 117 -20 47 -48 99
-61 116 -13 17 -30 53 -38 80 -8 27 -35 85 -60 129 -25 44 -68 125 -96 180
-27 55 -65 127 -84 160 -19 33 -47 91 -61 129 -15 38 -56 117 -92 175 -36 58
-98 164 -139 235 -41 72 -85 144 -98 160 -12 17 -35 56 -50 86 -32 63 -159
265 -186 296 -10 11 -38 60 -62 110 -45 91 -111 193 -177 274 -20 25 -71 99
-114 165 -42 66 -96 147 -121 180 -24 33 -65 94 -91 135 -26 41 -59 88 -73
103 -14 16 -55 70 -91 122 -73 105 -224 307 -303 404 -29 36 -78 101 -110 145
-32 45 -82 106 -110 136 -29 30 -74 84 -102 119 -27 35 -79 98 -115 140 -36
42 -73 87 -82 101 -9 14 -65 76 -124 139 -60 63 -131 142 -158 175 -27 34
-126 138 -220 233 -94 94 -198 202 -231 239 -98 111 -294 303 -400 394 -55 46
-143 128 -195 181 -157 159 -357 347 -500 469 -74 63 -169 149 -210 192 -41
42 -106 97 -144 123 -38 26 -97 71 -130 102 -34 30 -79 64 -101 75 -22 11 -62
42 -90 67 -27 26 -90 75 -140 109 -49 33 -101 72 -115 84 -106 97 -288 236
-349 268 -22 11 -42 24 -45 29 -3 5 -47 38 -97 72 -50 35 -112 80 -137 100
-26 20 -67 47 -92 59 -25 12 -59 34 -75 49 -17 14 -65 49 -107 76 -43 28 -129
83 -190 123 -62 41 -135 85 -163 99 -27 14 -103 60 -167 102 -204 133 -290
186 -393 241 -55 29 -134 76 -175 105 -41 29 -115 74 -165 100 -49 26 -124 67
-166 91 -42 25 -100 51 -128 60 -29 8 -94 39 -144 68 -109 63 -581 298 -752
375 -66 29 -158 72 -205 94 -139 66 -192 88 -259 109 -35 11 -81 31 -101 44
-20 13 -94 44 -166 68 -168 57 -500 187 -590 231 -50 25 -85 35 -117 35 -32 0
-80 14 -154 44 -117 48 -268 98 -348 116 -27 6 -84 26 -125 44 -41 19 -100 39
-130 46 -30 6 -89 23 -130 37 -41 14 -104 31 -140 38 -36 7 -148 36 -250 65
-102 29 -214 59 -250 66 -36 8 -85 21 -110 29 -25 8 -84 21 -132 29 -48 8
-128 29 -178 46 -142 49 -288 78 -495 100 -206 22 -276 36 -329 69 -38 24 -96
85 -96 102 0 23 26 58 100 134 72 74 278 363 325 456 9 19 51 86 93 149 42 63
90 138 107 165 18 28 52 82 77 120 25 39 60 97 79 130 18 33 46 79 62 103 16
24 42 73 59 109 16 36 64 118 107 182 43 64 101 157 130 206 64 109 160 264
177 285 6 8 29 49 50 90 21 41 55 101 76 132 21 31 38 59 38 62 0 5 107 189
163 281 17 28 51 88 77 135 26 47 79 141 119 209 41 68 87 152 102 188 16 35
53 96 81 136 53 73 96 147 196 337 30 58 77 140 104 182 26 43 79 140 116 215
38 76 102 187 142 248 41 60 88 144 106 185 17 42 47 100 66 130 19 30 42 75
52 99 9 25 44 86 77 137 33 50 76 129 95 175 20 46 42 91 49 99 6 8 33 51 59
95 27 44 66 103 87 132 21 28 50 82 64 119 14 37 30 73 35 79 5 6 40 72 78
146 37 74 80 151 95 170 14 19 38 66 52 105 15 38 51 112 80 164 30 52 62 113
71 135 9 22 35 69 59 105 23 36 46 76 50 90 4 14 24 54 45 90 63 108 207 381
239 453 17 37 48 98 69 135 35 60 151 283 193 373 9 19 103 205 209 414 107
209 214 423 239 475 25 52 138 280 251 505 113 226 262 527 332 670 70 143
199 407 288 588 89 180 168 351 177 380 8 28 45 108 82 177 37 69 73 141 81
160 7 19 26 58 42 87 16 28 37 76 48 107 10 31 48 112 84 182 36 69 66 134 66
144 0 10 15 40 34 67 18 27 46 84 61 128 25 74 69 166 196 417 28 53 57 121
65 150 9 29 58 139 109 243 51 105 101 215 110 245 9 30 34 84 55 120 20 36
43 83 50 105 7 22 43 103 81 180 38 77 90 194 117 260 43 105 112 253 314 675
27 58 65 148 82 200 18 52 42 113 53 135 11 22 24 51 28 65 4 14 21 52 37 85
17 33 45 97 63 142 31 75 71 167 195 448 27 61 70 160 96 220 25 61 68 153 94
205 26 52 53 112 59 133 7 20 41 103 76 183 35 80 67 160 71 177 3 18 15 50
26 72 23 47 83 199 93 235 9 33 59 145 156 356 43 93 79 173 79 177 0 4 23 58
51 120 76 167 147 340 184 447 18 52 47 124 64 160 16 36 42 106 56 155 14 50
46 131 71 180 26 50 55 117 66 149 17 51 98 248 158 381 10 22 21 51 25 65 4
14 23 61 42 105 19 44 43 107 53 140 10 33 39 112 65 175 26 63 59 162 72 220
25 104 46 177 76 256 40 104 45 654 16 1849 -9 376 -31 753 -45 776 -8 13 -34
367 -34 464 0 50 -7 133 -15 185 -15 97 -42 374 -70 735 -8 110 -22 247 -30
305 -8 58 -17 141 -21 185 -3 44 -10 107 -15 140 -11 79 -46 365 -65 535 -8
74 -17 143 -20 153 -3 10 -12 68 -19 130 -12 106 -20 158 -80 507 -35 204 -90
558 -104 665 -7 50 -30 169 -51 265 -22 96 -48 238 -59 315 -11 77 -39 221
-61 320 -23 99 -56 254 -75 345 -19 91 -43 190 -54 220 -10 30 -22 82 -26 115
-7 59 -57 288 -115 520 -17 66 -37 161 -44 212 -8 50 -28 136 -45 190 -16 54
-36 132 -44 173 -19 97 -80 334 -111 430 -14 41 -37 131 -51 200 -15 69 -38
157 -52 195 -13 39 -31 97 -40 130 -25 101 -92 334 -133 465 -21 69 -44 159
-51 200 -6 41 -31 125 -54 185 -24 61 -50 144 -59 185 -10 41 -33 122 -52 180
-20 58 -49 153 -64 212 -16 59 -41 140 -55 180 -31 86 -34 95 -166 483 -138
409 -193 568 -222 645 -13 36 -45 121 -70 190 -25 69 -66 181 -92 250 -25 69
-61 170 -80 225 -75 221 -115 331 -134 369 -45 94 -184 436 -212 525 -17 53
-44 128 -60 166 -15 39 -40 104 -55 145 -15 41 -44 111 -66 155 -22 44 -48
105 -58 135 -10 30 -36 93 -58 140 -47 99 -150 344 -217 515 -27 66 -97 223
-156 349 -69 144 -111 246 -115 276 -4 27 -23 78 -45 116 -77 137 -159 306
-188 387 -28 77 -80 183 -214 440 -32 59 -57 115 -57 124 0 18 -56 136 -203
428 -55 110 -112 223 -126 250 -13 28 -55 106 -92 175 -37 69 -73 145 -79 170
-7 25 -27 68 -44 95 -114 173 -184 301 -210 382 -10 28 -35 79 -57 113 -21 34
-53 89 -70 123 -18 34 -52 95 -76 134 -24 40 -51 92 -59 115 -8 23 -41 85 -73
138 -72 117 -185 320 -236 420 -20 41 -70 130 -111 197 -41 66 -77 129 -80
140 -4 10 -44 83 -89 163 -45 80 -104 186 -132 235 -56 101 -124 216 -207 350
-31 50 -70 118 -86 153 -16 34 -61 109 -99 165 -79 117 -129 199 -214 347 -33
58 -84 142 -114 188 -29 46 -66 109 -82 141 -16 31 -49 82 -73 112 -25 29 -66
90 -93 134 -26 44 -58 94 -70 110 -13 17 -42 66 -65 110 -23 44 -65 114 -93
155 -28 41 -65 97 -81 123 -17 26 -55 83 -83 125 -115 170 -193 286 -276 416
-33 50 -80 120 -107 156 -26 36 -58 85 -70 110 -13 25 -60 92 -105 150 -45 58
-101 137 -124 175 -61 102 -159 252 -212 326 -26 35 -58 87 -72 114 -14 28
-71 106 -126 175 -90 112 -226 301 -366 510 -27 41 -84 111 -126 155 -42 44
-89 104 -105 134 -16 29 -53 81 -82 113 -29 33 -57 70 -62 82 -4 11 -39 62
-76 113 -38 50 -77 104 -86 120 -29 47 -170 236 -220 294 -26 31 -69 89 -96
130 -27 41 -78 108 -113 149 -35 41 -76 93 -90 115 -28 43 -123 164 -218 281
-32 38 -87 110 -121 160 -35 49 -82 112 -105 139 -22 28 -63 82 -90 120 -56
79 -277 346 -394 475 -42 47 -94 108 -116 135 -22 28 -73 86 -115 130 -41 44
-109 125 -150 180 -41 55 -99 129 -130 165 -31 36 -95 115 -142 175 -48 61
-109 135 -135 166 -26 32 -95 112 -153 180 -58 68 -157 183 -220 255 -63 73
-135 158 -160 190 -25 33 -94 111 -155 175 -60 63 -147 158 -192 210 -45 52
-123 137 -175 190 -51 53 -142 151 -203 219 -60 68 -148 165 -196 214 -47 50
-125 137 -173 194 -49 56 -110 122 -137 146 -27 24 -68 68 -91 97 -54 70 -477
521 -622 664 -61 61 -174 178 -251 260 -155 164 -371 383 -425 430 -19 17
-120 118 -223 225 -104 107 -249 249 -324 315 -74 66 -156 147 -182 179 -25
32 -66 74 -90 93 -25 18 -147 133 -272 255 -125 121 -235 225 -245 231 -11 5
-53 45 -94 87 -41 42 -95 91 -120 109 -25 18 -79 65 -120 105 -41 39 -163 153
-270 252 -107 98 -264 244 -350 324 -198 185 -381 348 -413 369 -14 9 -48 40
-77 69 -29 30 -76 72 -103 94 -28 21 -73 59 -101 83 -102 87 -500 438 -561
494 -22 20 -85 75 -140 122 -55 47 -107 94 -115 104 -8 9 -46 39 -85 65 -39
26 -77 55 -85 65 -8 9 -73 65 -145 123 -71 58 -164 136 -205 172 -41 37 -158
133 -260 215 -102 81 -218 177 -257 212 -40 36 -93 78 -118 94 -25 16 -91 66
-148 112 -56 46 -127 101 -157 123 -30 21 -98 72 -150 114 -52 41 -133 103
-180 137 -47 34 -117 90 -155 125 -39 35 -92 80 -120 98 -42 29 -106 75 -267
195 -15 11 -55 40 -90 64 -35 25 -94 70 -133 101 -38 30 -90 69 -115 84 -76
49 -257 187 -335 256 -45 39 -211 160 -438 318 -34 24 -100 72 -147 106 -96
70 -208 146 -290 196 -67 41 -98 64 -153 110 -103 88 -397 293 -487 340 -14 7
-52 34 -85 59 -85 65 -282 198 -505 341 -63 40 -212 137 -330 215 -327 216
-437 287 -535 345 -49 30 -122 75 -162 101 -39 27 -118 77 -175 112 -250 155
-331 205 -448 282 -157 103 -369 228 -575 340 -157 85 -263 154 -317 203 -15
13 -51 34 -80 46 -29 12 -129 67 -223 121 -251 145 -625 347 -809 437 -44 22
-118 62 -165 90 -47 28 -121 66 -165 84 -43 18 -86 40 -95 48 -24 22 -368 206
-416 223 -21 7 -60 27 -85 43 -25 16 -68 39 -95 51 -28 12 -90 44 -138 71 -48
27 -116 61 -150 74 -34 14 -180 83 -323 154 -144 72 -265 130 -270 130 -5 0
-25 11 -44 24 -19 12 -53 29 -75 36 -95 30 -306 127 -780 360 -110 54 -211
101 -225 105 -14 4 -52 20 -85 35 -156 72 -266 120 -277 120 -6 0 -30 11 -52
24 -23 13 -88 38 -146 55 -58 18 -136 47 -175 66 -279 134 -334 157 -391 166
-40 5 -88 23 -135 48 -81 43 -237 107 -339 139 -36 11 -102 36 -148 56 -46 20
-109 43 -140 52 -31 9 -72 25 -91 35 -18 11 -64 26 -100 34 -76 16 -216 65
-337 119 -45 20 -122 45 -170 56 -49 10 -138 38 -199 61 -60 22 -162 57 -225
76 -63 19 -140 43 -170 54 -91 33 -190 66 -280 92 -47 14 -144 43 -216 65 -72
22 -174 49 -226 60 -53 12 -119 32 -146 46 -30 15 -81 29 -131 35 -45 6 -127
24 -184 40 -197 56 -488 132 -555 146 -37 7 -94 25 -127 39 -39 16 -95 28
-163 35 -130 14 -237 34 -432 82 -144 35 -405 83 -596 109 -45 6 -113 20 -150
31 -115 33 -160 39 -404 54 -130 8 -272 21 -315 29 -44 8 -111 17 -150 21 -38
3 -129 15 -201 25 -72 11 -198 25 -280 30 -82 6 -196 15 -254 21 -253 25 -708
31 -1300 19z m850 -3860 c135 -6 299 -17 365 -25 66 -8 203 -22 305 -30 102
-9 235 -23 295 -31 61 -8 151 -19 200 -25 88 -10 268 -42 450 -79 50 -10 158
-30 240 -44 83 -15 240 -48 350 -75 110 -27 229 -52 265 -56 36 -4 133 -26
215 -50 83 -24 197 -55 255 -70 58 -15 148 -42 200 -60 52 -19 115 -37 140
-40 99 -14 491 -132 685 -207 73 -28 181 -60 248 -74 65 -13 130 -30 145 -38
39 -19 464 -175 752 -275 192 -66 299 -111 354 -145 39 -26 66 -35 114 -40 45
-4 90 -19 165 -54 56 -27 113 -53 126 -57 13 -4 63 -25 110 -47 47 -22 136
-59 196 -83 61 -24 169 -69 240 -100 72 -31 165 -70 209 -86 43 -16 97 -39
120 -52 22 -14 66 -32 96 -42 30 -10 105 -43 165 -73 61 -30 139 -67 175 -82
127 -54 295 -134 318 -151 13 -10 53 -28 89 -40 37 -12 112 -48 168 -80 56
-31 122 -63 146 -69 49 -12 525 -245 604 -295 28 -18 68 -38 90 -45 22 -7 86
-39 143 -72 57 -33 129 -71 160 -84 85 -37 104 -47 137 -70 17 -12 89 -51 162
-87 72 -36 144 -74 160 -85 15 -10 52 -32 82 -47 30 -15 79 -44 110 -64 31
-21 82 -48 114 -61 32 -13 85 -40 118 -61 33 -22 74 -45 92 -52 18 -8 64 -35
104 -60 39 -25 118 -71 175 -103 126 -70 383 -210 498 -272 47 -25 105 -60
130 -77 25 -18 72 -47 105 -65 33 -18 78 -46 101 -61 22 -15 111 -66 197 -113
170 -92 287 -167 357 -229 25 -22 64 -48 87 -58 23 -10 84 -44 135 -77 51 -32
147 -91 213 -130 137 -82 327 -205 430 -278 76 -53 229 -146 311 -187 27 -14
69 -41 92 -60 23 -20 59 -45 79 -58 42 -24 129 -82 173 -114 29 -21 187 -129
310 -212 41 -28 143 -94 225 -146 83 -53 170 -110 195 -129 119 -89 528 -369
600 -410 25 -15 93 -71 151 -125 66 -62 154 -129 237 -183 168 -108 328 -220
476 -335 64 -49 152 -115 195 -145 109 -77 358 -265 472 -358 114 -91 238
-184 359 -267 107 -74 153 -111 302 -244 65 -57 143 -119 175 -138 32 -19 78
-54 103 -77 25 -24 68 -58 95 -76 66 -44 133 -99 227 -186 43 -40 106 -92 140
-118 96 -69 285 -224 358 -292 36 -33 88 -77 115 -96 28 -20 68 -55 90 -78 22
-23 72 -66 111 -95 39 -29 104 -82 145 -118 41 -35 89 -77 108 -93 19 -16 77
-69 130 -118 53 -48 123 -109 156 -134 33 -25 92 -75 130 -111 39 -37 104 -92
145 -123 41 -31 116 -95 165 -143 50 -47 124 -115 165 -150 41 -35 92 -82 113
-104 20 -23 56 -55 79 -71 63 -46 598 -544 978 -911 113 -108 224 -212 247
-231 23 -18 70 -66 104 -106 34 -40 83 -89 108 -108 49 -37 927 -905 973 -962
15 -19 63 -66 106 -106 43 -40 106 -103 141 -142 35 -38 136 -143 225 -234 89
-91 220 -228 291 -304 72 -76 243 -254 380 -395 237 -243 430 -454 610 -666
44 -51 107 -125 140 -163 92 -107 184 -214 306 -362 152 -184 265 -313 384
-439 55 -59 136 -149 180 -200 44 -51 91 -103 105 -115 14 -11 39 -39 55 -61
16 -22 54 -71 84 -108 30 -38 70 -90 90 -117 65 -87 202 -254 252 -305 27 -27
67 -77 90 -110 22 -33 70 -94 108 -135 37 -41 77 -92 89 -113 24 -41 93 -123
208 -246 39 -42 79 -93 88 -112 9 -20 48 -73 87 -118 38 -46 87 -109 109 -141
21 -31 60 -81 87 -111 27 -30 86 -106 133 -169 46 -63 100 -137 121 -165 20
-27 45 -63 55 -80 20 -33 168 -226 240 -315 24 -30 72 -95 106 -145 34 -49 83
-112 109 -140 26 -27 77 -99 112 -160 36 -60 89 -140 118 -178 29 -37 58 -78
64 -91 7 -13 32 -49 56 -81 24 -31 60 -79 79 -105 19 -26 73 -99 121 -161 47
-63 142 -199 212 -304 131 -196 214 -317 337 -490 117 -165 215 -313 291 -440
89 -148 98 -162 200 -305 109 -155 299 -455 360 -570 30 -56 74 -126 163 -261
27 -41 65 -103 84 -139 20 -36 52 -90 72 -120 20 -30 51 -82 69 -115 19 -33
47 -75 62 -93 16 -18 43 -61 60 -95 17 -34 64 -114 104 -178 41 -63 97 -160
126 -215 29 -54 67 -119 85 -144 37 -53 130 -221 167 -303 15 -32 40 -79 57
-104 17 -24 40 -63 52 -86 11 -23 54 -90 94 -149 41 -60 80 -131 90 -163 13
-39 38 -80 81 -132 37 -45 67 -92 73 -114 6 -22 15 -57 21 -80 5 -22 26 -61
45 -86 20 -26 47 -69 61 -97 14 -28 42 -80 63 -116 60 -104 355 -688 389 -770
17 -41 63 -133 102 -205 90 -164 521 -1046 584 -1195 15 -36 45 -103 66 -150
20 -47 43 -105 49 -130 7 -25 42 -104 79 -175 36 -72 74 -148 83 -170 9 -22
26 -56 37 -75 23 -40 70 -155 140 -345 27 -71 71 -177 98 -235 27 -58 60 -132
73 -165 13 -33 26 -64 30 -70 4 -5 35 -82 69 -170 34 -88 71 -178 81 -200 11
-22 41 -101 68 -175 27 -74 59 -157 71 -185 53 -125 117 -292 166 -430 28 -82
68 -189 88 -236 19 -47 51 -133 71 -191 19 -58 50 -143 69 -189 33 -82 72
-193 157 -454 23 -71 60 -175 82 -230 22 -55 48 -140 59 -188 10 -49 35 -128
55 -175 57 -136 93 -248 109 -339 8 -45 24 -101 35 -122 11 -22 29 -81 40
-133 21 -95 67 -251 196 -653 40 -126 78 -260 84 -297 5 -37 23 -106 39 -155
16 -48 45 -151 65 -228 20 -77 52 -187 71 -245 19 -58 37 -130 40 -160 9 -71
70 -343 89 -398 8 -23 31 -115 50 -204 19 -90 50 -217 69 -283 19 -66 45 -185
57 -265 32 -212 103 -562 154 -755 14 -55 30 -136 36 -180 6 -44 16 -97 21
-117 5 -21 21 -122 34 -225 26 -197 57 -373 80 -458 8 -27 19 -90 25 -140 6
-49 19 -139 30 -200 11 -60 31 -199 45 -308 14 -110 37 -258 51 -330 15 -79
29 -196 34 -292 8 -142 12 -169 39 -243 37 -98 39 -141 9 -194 -31 -54 -79
-83 -117 -70 -36 13 -200 122 -250 166 -20 18 -74 55 -121 81 -47 27 -97 57
-112 67 -15 10 -71 41 -125 69 -54 28 -137 77 -184 108 -92 60 -263 160 -388
227 -89 47 -209 120 -232 141 -9 7 -56 35 -105 61 -49 27 -145 82 -214 124
-69 41 -188 110 -265 153 -77 43 -201 112 -275 154 -74 42 -156 87 -182 101
-26 14 -93 51 -150 84 -57 32 -159 90 -228 129 -69 39 -168 99 -220 133 -52
34 -129 79 -170 99 -41 21 -97 52 -125 70 -27 17 -97 58 -155 90 -151 84 -430
248 -537 317 -50 32 -122 74 -160 94 -109 58 -295 165 -328 189 -16 12 -64 40
-105 62 -160 85 -268 148 -330 194 -36 26 -81 53 -100 61 -19 9 -102 55 -185
105 -82 49 -181 107 -220 128 -38 21 -84 48 -101 61 -17 12 -55 27 -85 32 -86
16 -110 29 -174 92 -44 44 -78 67 -130 87 -39 16 -113 56 -165 89 -145 92
-317 194 -327 194 -4 0 -31 15 -59 33 -80 51 -90 56 -249 140 -82 44 -168 90
-190 104 -141 87 -407 232 -450 246 -11 3 -31 13 -45 21 -14 9 -122 63 -240
121 -118 57 -273 138 -345 180 -71 42 -254 137 -405 211 -151 74 -387 192
-525 261 -137 70 -318 160 -400 202 -83 42 -202 99 -265 126 -63 28 -205 94
-315 149 -110 54 -256 123 -325 153 -69 30 -148 67 -175 82 -28 16 -91 45
-140 66 -49 20 -150 66 -225 102 -74 36 -164 75 -200 88 -36 13 -119 48 -185
78 -66 30 -138 60 -160 67 -22 7 -74 30 -115 50 -41 21 -100 48 -130 61 -30
12 -69 33 -86 46 -17 13 -53 27 -80 32 -53 10 -127 41 -244 101 -41 21 -102
47 -135 58 -33 11 -132 51 -220 90 -301 132 -330 144 -426 177 -53 18 -107 40
-120 48 -13 8 -74 33 -136 56 -61 22 -158 60 -215 85 -56 24 -168 68 -248 96
-80 29 -183 70 -230 91 -47 21 -105 42 -130 48 -25 5 -85 29 -135 52 -102 47
-186 79 -295 114 -41 14 -136 50 -210 80 -185 76 -267 108 -390 147 -58 19
-204 71 -325 117 -121 45 -263 94 -315 110 -52 16 -142 47 -200 69 -101 39
-185 65 -242 77 -14 3 -40 16 -56 30 -17 14 -59 32 -98 42 -127 30 -198 51
-344 101 -80 28 -169 55 -198 61 -30 6 -72 22 -95 35 -23 13 -87 34 -142 46
-55 12 -124 35 -155 51 -30 16 -113 45 -185 64 -71 20 -204 60 -295 90 -91 29
-210 66 -265 81 -144 39 -238 67 -340 104 -49 17 -137 41 -195 52 -57 11 -131
31 -163 44 -32 14 -106 36 -165 50 -59 14 -132 34 -162 45 -30 11 -86 28 -125
38 -38 10 -167 47 -285 83 -118 36 -273 78 -345 92 -71 15 -168 40 -215 56
-47 16 -121 36 -165 45 -44 8 -132 31 -195 50 -121 37 -399 105 -510 125 -36
7 -96 25 -135 40 -38 15 -133 40 -210 55 -77 15 -200 44 -273 65 -73 21 -194
48 -270 60 -75 12 -202 38 -282 59 -149 40 -309 77 -555 130 -77 17 -156 35
-175 41 -19 6 -91 20 -160 31 -143 23 -231 42 -420 93 -74 19 -216 49 -315 66
-99 17 -214 41 -255 55 -55 18 -114 27 -225 35 -114 8 -221 25 -445 71 -162
33 -349 69 -415 80 -66 11 -145 26 -175 33 -30 8 -82 17 -115 21 -33 4 -193
29 -355 56 -310 51 -521 83 -630 94 -36 4 -85 11 -109 16 -25 6 -151 25 -281
44 -129 19 -278 43 -330 54 -150 31 -222 40 -435 52 -110 6 -270 22 -355 36
-291 47 -405 63 -545 78 -691 74 -829 90 -890 105 -22 5 -128 14 -235 20 -280
14 -717 49 -770 61 -25 5 -124 14 -220 19 -96 4 -263 15 -370 24 -336 27
-1248 84 -1550 96 -124 5 -263 14 -310 20 -154 19 -720 30 -1825 37 -1118 6
-2635 -9 -2825 -28 -52 -6 -183 -14 -290 -19 -107 -5 -238 -14 -290 -20 -193
-21 -319 -30 -455 -30 -77 0 -257 -9 -400 -20 -143 -11 -312 -20 -375 -20 -63
0 -173 -6 -245 -14 -71 -8 -180 -17 -240 -21 -61 -3 -153 -12 -205 -20 -52 -8
-167 -19 -255 -25 -562 -37 -711 -51 -950 -85 -55 -8 -158 -19 -230 -25 -424
-34 -702 -66 -920 -105 -135 -24 -382 -53 -550 -65 -185 -13 -248 -22 -400
-55 -60 -13 -153 -29 -205 -35 -136 -16 -302 -39 -396 -55 -45 -8 -122 -19
-170 -25 -49 -6 -150 -22 -224 -35 -74 -13 -162 -26 -195 -30 -137 -13 -472
-68 -550 -90 -27 -7 -120 -25 -205 -39 -218 -35 -479 -81 -656 -116 -82 -16
-204 -34 -270 -40 -70 -7 -152 -21 -199 -36 -44 -14 -134 -34 -200 -45 -170
-28 -440 -87 -483 -105 -31 -13 -139 -33 -532 -99 -47 -8 -116 -26 -155 -40
-38 -13 -80 -25 -93 -25 -28 0 -129 -23 -427 -97 -153 -38 -253 -57 -330 -63
-77 -6 -123 -15 -152 -30 -55 -26 -365 -115 -474 -135 -46 -9 -131 -29 -189
-45 -58 -17 -163 -41 -234 -55 -71 -14 -146 -35 -167 -46 -21 -10 -49 -19 -62
-19 -14 0 -69 -13 -123 -29 -55 -15 -119 -33 -144 -40 -25 -6 -135 -35 -245
-65 -110 -30 -227 -57 -260 -61 -33 -4 -91 -20 -130 -36 -38 -16 -115 -40
-170 -53 -55 -14 -149 -41 -210 -61 -60 -20 -148 -45 -195 -56 -47 -12 -137
-36 -201 -55 -64 -19 -123 -34 -133 -34 -9 0 -67 -16 -129 -36 -62 -20 -155
-50 -207 -66 -52 -17 -120 -42 -149 -55 -30 -13 -84 -28 -120 -33 -81 -12
-101 -18 -221 -65 -52 -20 -147 -50 -210 -67 -63 -16 -153 -41 -200 -55 -47
-14 -114 -33 -150 -43 -129 -35 -246 -73 -280 -91 -19 -11 -66 -28 -105 -38
-90 -24 -304 -96 -376 -127 -30 -13 -87 -30 -125 -38 -38 -8 -87 -22 -109 -32
-22 -9 -132 -49 -245 -89 -271 -96 -449 -161 -535 -195 -38 -15 -104 -37 -146
-48 -42 -12 -128 -44 -190 -71 -63 -27 -152 -59 -198 -71 -46 -11 -114 -36
-150 -55 -97 -48 -216 -92 -297 -109 -39 -8 -87 -24 -105 -35 -19 -11 -56 -27
-84 -36 -27 -10 -129 -49 -225 -87 -96 -38 -218 -85 -271 -103 -52 -19 -129
-50 -169 -69 -41 -20 -84 -36 -95 -36 -12 0 -62 -20 -111 -43 -49 -24 -107
-50 -129 -57 -21 -7 -84 -33 -140 -57 -55 -24 -140 -59 -190 -78 -49 -18 -121
-45 -160 -60 -38 -14 -135 -55 -215 -89 -80 -35 -185 -81 -235 -101 -49 -21
-143 -64 -208 -97 -126 -63 -196 -91 -353 -143 -111 -36 -193 -75 -213 -99 -8
-9 -39 -24 -70 -32 -117 -34 -296 -109 -451 -189 -36 -18 -114 -54 -175 -80
-60 -26 -171 -79 -245 -117 -74 -39 -171 -85 -215 -103 -181 -74 -362 -160
-540 -257 -66 -36 -149 -76 -185 -89 -36 -12 -72 -28 -81 -36 -25 -21 -129
-68 -184 -83 -27 -8 -79 -30 -115 -50 -36 -20 -123 -65 -195 -99 -154 -75
-165 -80 -365 -183 -85 -44 -159 -84 -165 -88 -15 -11 -545 -277 -578 -289
-15 -6 -52 -26 -82 -46 -31 -19 -137 -78 -238 -132 -100 -53 -200 -108 -222
-121 -22 -14 -103 -57 -181 -96 -77 -39 -155 -83 -172 -98 -17 -14 -48 -32
-69 -39 -20 -6 -60 -25 -87 -42 -28 -16 -100 -55 -161 -87 -60 -31 -135 -72
-165 -90 -129 -77 -240 -140 -248 -140 -4 0 -41 -21 -82 -47 -41 -26 -110 -65
-152 -88 -42 -22 -141 -79 -220 -126 -79 -48 -183 -109 -233 -137 -122 -67
-163 -90 -280 -157 -55 -32 -118 -67 -140 -78 -22 -11 -55 -33 -73 -48 -18
-16 -37 -29 -43 -29 -13 0 -344 -189 -429 -245 -106 -70 -309 -187 -400 -231
-47 -22 -104 -53 -127 -67 -24 -15 -69 -41 -100 -58 -32 -17 -67 -39 -78 -49
-11 -11 -55 -35 -98 -54 -43 -20 -124 -64 -180 -99 -170 -106 -250 -154 -287
-172 -19 -10 -53 -32 -75 -50 -22 -18 -78 -52 -125 -77 -118 -62 -237 -129
-286 -160 -22 -14 -119 -71 -215 -125 -96 -55 -230 -133 -299 -175 -226 -136
-314 -186 -380 -217 -95 -44 -296 -157 -362 -202 -31 -21 -59 -39 -63 -39 -3
0 -50 -28 -103 -61 -155 -99 -284 -175 -437 -259 -79 -43 -163 -91 -187 -108
-24 -16 -68 -40 -98 -53 -30 -12 -118 -63 -195 -112 -77 -49 -173 -110 -213
-136 -40 -25 -90 -59 -110 -75 -50 -38 -131 -76 -165 -76 -16 0 -38 10 -52 25
-32 31 -33 88 -5 235 10 58 24 170 29 250 6 80 19 188 30 240 11 52 24 142 31
200 6 58 20 155 30 215 38 221 51 302 65 415 7 63 23 153 34 200 11 47 34 182
51 300 17 118 40 254 51 302 10 48 26 135 34 193 8 57 28 157 44 222 17 65 37
154 46 198 9 44 29 136 45 205 15 69 31 159 35 200 9 98 49 304 80 405 13 44
38 143 55 220 17 77 44 181 60 230 28 89 72 297 85 405 3 30 21 102 40 160 18
58 50 165 70 239 20 74 52 178 71 233 19 54 34 107 34 119 0 48 36 187 92 358
33 101 73 229 88 285 57 205 92 323 121 411 33 99 49 156 72 257 9 37 36 118
61 181 25 62 54 149 66 193 30 108 58 193 120 364 28 80 63 184 76 233 13 48
31 102 40 120 9 17 34 81 55 142 47 139 125 350 177 480 22 55 55 145 73 200
17 55 56 154 84 220 29 66 60 147 69 180 10 33 26 75 37 94 11 19 40 91 64
160 74 212 103 288 128 338 14 26 28 59 32 73 4 14 24 61 45 105 21 44 43 100
50 124 6 25 38 97 70 160 31 64 63 134 70 156 7 22 37 102 66 177 30 76 54
142 54 148 0 6 16 34 35 63 20 29 40 70 46 92 6 22 40 97 75 167 35 70 68 148
74 174 6 26 52 131 102 233 50 102 128 265 173 361 46 96 120 249 165 340 45
91 90 189 100 218 11 28 72 154 137 280 65 125 127 247 138 272 11 25 49 97
84 160 36 63 94 174 129 245 36 72 86 168 112 215 26 47 83 155 128 240 44 85
98 187 121 225 22 39 66 115 97 170 31 55 87 152 124 215 110 189 178 312 205
374 14 32 36 72 49 90 13 17 47 73 75 124 29 52 66 112 82 134 16 23 29 45 29
51 0 5 58 102 129 216 70 113 141 231 156 261 67 132 272 481 324 550 54 72
118 172 236 370 106 177 238 372 373 553 28 39 52 74 52 78 0 10 100 176 144
239 17 25 59 90 93 145 34 55 89 138 123 185 78 108 180 266 180 279 0 5 17
31 37 58 20 26 80 113 132 193 52 80 124 181 160 225 35 44 81 105 100 135 20
30 61 87 92 125 56 71 133 179 193 270 43 67 211 299 256 355 20 25 52 71 71
103 18 32 71 98 116 148 72 79 157 194 286 387 21 31 59 82 85 112 26 30 59
71 72 90 13 19 51 66 84 104 32 39 79 97 103 130 46 63 141 178 303 369 126
148 162 195 187 238 23 40 297 386 384 485 30 33 79 92 109 129 30 38 76 92
101 120 80 89 193 224 226 273 18 26 66 83 106 127 171 185 395 447 581 676
51 63 107 126 122 140 16 13 54 56 84 95 74 95 242 280 625 686 176 187 337
360 357 385 45 54 332 349 403 414 28 25 104 105 170 178 144 160 248 265 910
915 565 555 749 734 844 822 35 32 129 123 208 202 79 78 181 174 226 214 45
39 169 153 275 252 106 100 226 209 265 244 40 35 88 80 107 100 19 21 58 55
85 77 28 21 85 71 127 110 142 130 346 304 463 395 39 29 98 84 133 121 35 38
87 81 116 98 29 16 65 44 80 63 15 18 66 65 112 103 198 165 275 230 369 315
135 121 372 314 412 334 18 9 66 45 105 79 40 34 108 89 152 122 141 108 233
179 272 213 51 43 246 201 343 277 42 33 141 114 221 180 80 66 177 141 215
167 39 26 116 83 172 125 56 43 128 95 160 116 32 21 96 69 143 107 47 38 110
86 140 107 74 50 273 206 336 262 28 25 91 73 140 106 166 113 289 199 354
250 36 28 76 58 90 67 14 8 59 44 100 79 41 34 107 81 147 103 71 39 103 62
323 223 54 40 204 142 332 227 128 85 253 171 278 191 25 19 70 47 100 61 30
15 71 38 90 53 115 87 367 258 422 287 27 14 170 109 304 201 127 88 254 168
334 210 109 57 237 132 362 212 48 31 113 72 145 92 32 20 130 83 218 141 88
57 199 125 246 150 47 26 126 72 174 103 49 32 100 63 114 69 47 20 204 108
319 178 63 38 139 80 170 94 31 14 66 33 77 43 11 10 52 35 90 56 39 21 100
58 137 82 37 24 87 52 111 62 43 18 260 141 345 195 23 14 79 43 124 64 46 21
128 66 183 99 55 34 120 69 145 79 25 9 50 20 55 24 29 21 390 204 575 292
174 82 484 241 504 257 6 5 31 14 56 21 25 6 92 37 150 67 164 88 297 152 398
194 51 20 107 47 125 58 18 11 48 28 67 37 152 72 275 128 330 148 104 38 345
139 527 220 92 41 195 84 228 97 33 12 85 33 115 46 30 14 71 31 90 38 19 7
80 33 135 58 55 25 123 51 150 58 28 6 91 29 140 49 262 111 345 144 405 161
35 11 103 34 150 53 47 19 121 44 165 56 44 12 139 45 210 72 72 28 171 64
220 81 50 16 126 43 170 58 44 16 152 49 240 75 88 25 201 59 250 75 89 29
218 68 445 134 63 18 151 40 195 49 44 8 172 43 285 76 151 44 238 64 330 75
83 9 152 24 205 44 79 29 226 61 485 106 74 13 176 32 225 43 50 11 180 29
290 41 110 12 234 26 275 31 441 61 664 81 1045 93 236 8 502 6 725 -3z m685
-30260 c237 -5 547 -14 690 -20 143 -6 424 -14 625 -19 201 -5 475 -18 610
-29 135 -11 353 -28 485 -37 132 -9 270 -23 306 -31 37 -7 150 -18 250 -24
223 -13 440 -27 699 -45 107 -8 238 -15 291 -15 135 0 364 -24 719 -76 124
-18 213 -29 375 -44 177 -16 266 -29 400 -55 113 -22 214 -34 470 -55 159 -13
329 -35 495 -64 80 -13 183 -27 230 -31 156 -12 369 -46 730 -117 85 -16 211
-34 280 -39 139 -9 272 -29 400 -59 82 -19 246 -50 550 -105 80 -15 163 -33
185 -41 22 -8 99 -22 170 -30 135 -15 247 -34 495 -85 80 -17 262 -54 405 -84
143 -29 273 -58 288 -64 42 -16 244 -51 295 -51 27 0 66 -10 97 -25 70 -33
420 -115 550 -130 33 -4 101 -20 151 -36 50 -16 167 -45 260 -64 93 -19 237
-50 319 -70 83 -20 195 -44 251 -54 55 -11 130 -31 165 -46 123 -51 165 -63
279 -80 131 -18 229 -42 380 -90 58 -19 148 -44 200 -56 52 -12 120 -32 150
-44 30 -13 132 -40 225 -60 94 -20 186 -44 205 -52 19 -8 80 -25 135 -38 55
-13 125 -32 155 -43 30 -11 91 -30 135 -42 43 -11 108 -34 145 -50 38 -16 114
-37 185 -48 66 -12 149 -33 185 -47 167 -69 219 -88 270 -100 30 -7 89 -24
130 -38 41 -14 111 -34 155 -45 44 -10 118 -33 165 -50 154 -55 674 -221 715
-228 22 -4 96 -29 165 -57 69 -28 193 -72 275 -98 83 -26 204 -65 270 -88 66
-23 134 -47 150 -52 17 -6 113 -42 215 -80 102 -39 268 -99 370 -133 208 -71
300 -105 315 -116 22 -16 235 -91 315 -110 47 -12 121 -36 165 -55 44 -18 115
-47 157 -64 42 -16 130 -54 195 -84 65 -30 158 -67 206 -81 48 -15 141 -51
205 -80 64 -30 139 -61 165 -70 26 -9 58 -23 71 -31 13 -9 81 -35 152 -59 71
-24 144 -51 162 -60 18 -9 63 -28 100 -40 37 -13 146 -58 242 -100 96 -42 186
-80 200 -83 14 -3 81 -34 151 -69 69 -34 145 -68 169 -74 24 -7 83 -31 130
-55 47 -23 103 -48 124 -55 22 -7 94 -40 161 -74 170 -86 304 -145 345 -152
19 -3 85 -30 145 -59 194 -95 345 -164 469 -216 67 -28 216 -97 331 -153 116
-57 248 -122 295 -144 47 -23 114 -57 150 -76 36 -19 112 -56 170 -81 58 -25
123 -59 145 -74 22 -16 97 -55 165 -86 69 -32 130 -62 136 -66 6 -5 42 -22 81
-38 38 -16 130 -62 204 -103 136 -76 530 -278 542 -278 4 0 80 -39 169 -86 90
-47 190 -97 222 -111 33 -14 97 -49 141 -79 45 -29 153 -89 241 -134 87 -44
191 -100 229 -124 170 -108 207 -129 247 -138 24 -5 77 -31 118 -57 68 -45
154 -94 328 -189 35 -18 90 -44 123 -57 70 -28 283 -165 297 -192 22 -43 22
-88 -2 -192 -14 -58 -43 -187 -66 -285 -23 -99 -48 -212 -55 -250 -8 -39 -27
-107 -44 -151 -16 -44 -41 -132 -56 -195 -15 -63 -37 -137 -50 -165 -39 -83
-95 -219 -95 -230 0 -36 -223 -433 -365 -650 -78 -118 -432 -486 -559 -581
-187 -140 -461 -303 -626 -373 -39 -17 -86 -41 -103 -53 -34 -24 -273 -107
-469 -162 -70 -20 -138 -40 -152 -46 -37 -14 -161 -38 -259 -50 -49 -6 -128
-21 -175 -34 -130 -36 -392 -49 -917 -44 l-440 3 -130 -28 c-145 -31 -266 -68
-337 -103 -28 -14 -65 -24 -91 -24 -47 0 -93 -28 -142 -87 -14 -18 -36 -35
-48 -39 -103 -32 -389 -296 -554 -509 -17 -22 -45 -68 -62 -103 -17 -34 -45
-74 -61 -88 -29 -27 -69 -117 -111 -254 -12 -36 -40 -119 -64 -185 -33 -91
-46 -146 -54 -225 -6 -58 -16 -148 -22 -200 -6 -52 -26 -162 -44 -245 -19 -82
-41 -184 -49 -225 -8 -41 -42 -192 -76 -335 -33 -143 -70 -312 -81 -375 -11
-63 -31 -149 -44 -190 -13 -41 -29 -102 -35 -135 -5 -33 -37 -152 -70 -265
-34 -113 -72 -257 -85 -320 -13 -64 -42 -167 -65 -230 -22 -63 -52 -160 -66
-215 -14 -55 -41 -137 -60 -183 -19 -45 -54 -156 -78 -245 -24 -89 -53 -184
-64 -212 -12 -27 -58 -158 -102 -290 -45 -132 -110 -307 -145 -390 -35 -82
-74 -181 -86 -220 -12 -38 -34 -95 -49 -125 -15 -30 -37 -88 -49 -129 -22 -71
-131 -321 -204 -467 -19 -38 -61 -136 -94 -219 -54 -135 -101 -234 -200 -428
-17 -34 -35 -84 -39 -110 -4 -27 -17 -61 -29 -75 -36 -45 -117 -200 -428 -817
-44 -88 -88 -171 -97 -185 -40 -58 -190 -317 -190 -327 0 -7 -24 -47 -53 -90
-30 -43 -75 -118 -102 -168 -62 -116 -99 -177 -151 -245 -22 -30 -58 -86 -79
-125 -21 -38 -55 -92 -76 -120 -20 -27 -47 -70 -59 -95 -13 -25 -74 -124 -137
-220 -63 -96 -154 -237 -203 -314 -49 -76 -105 -157 -124 -181 -19 -23 -46
-67 -59 -97 -14 -30 -51 -90 -83 -132 -33 -43 -79 -106 -104 -140 -25 -34 -90
-118 -145 -186 -56 -69 -123 -156 -149 -195 -27 -38 -69 -94 -95 -125 -177
-209 -286 -345 -422 -525 -30 -41 -82 -105 -115 -142 -33 -37 -103 -120 -154
-183 -52 -63 -119 -140 -150 -170 -30 -30 -91 -95 -135 -145 -44 -49 -120
-132 -170 -185 -49 -52 -110 -118 -135 -145 -125 -137 -301 -318 -574 -588
-406 -402 -439 -433 -504 -487 -31 -25 -88 -77 -127 -115 -141 -141 -509 -471
-577 -519 -38 -27 -93 -71 -121 -98 -29 -27 -97 -83 -152 -124 -55 -41 -127
-99 -160 -129 -33 -30 -83 -72 -111 -92 -28 -21 -93 -73 -145 -117 -52 -43
-134 -106 -183 -139 -50 -33 -120 -85 -157 -116 -37 -31 -114 -88 -170 -126
-99 -66 -150 -103 -334 -242 -44 -33 -111 -79 -150 -103 -38 -23 -83 -54 -100
-70 -35 -32 -191 -138 -290 -199 -39 -23 -106 -67 -150 -97 -44 -31 -118 -75
-165 -99 -47 -23 -113 -63 -146 -89 -34 -25 -65 -46 -68 -46 -4 0 -62 -36
-130 -80 -67 -44 -127 -80 -133 -80 -5 0 -50 -25 -99 -56 -158 -101 -334 -204
-417 -245 -45 -23 -136 -73 -201 -112 -66 -38 -142 -79 -170 -89 -28 -11 -60
-28 -71 -37 -40 -35 -330 -185 -380 -196 -16 -4 -122 -56 -235 -116 -179 -94
-309 -159 -617 -305 -39 -19 -77 -34 -85 -34 -7 0 -30 -9 -51 -20 -20 -11 -85
-38 -143 -60 -58 -22 -141 -58 -184 -80 -44 -22 -125 -58 -180 -80 -56 -22
-127 -53 -159 -69 -31 -16 -82 -34 -114 -40 -31 -6 -71 -18 -89 -28 -18 -9
-53 -25 -78 -34 -164 -62 -344 -131 -395 -153 -33 -14 -85 -30 -115 -37 -30
-6 -91 -26 -135 -45 -138 -57 -477 -177 -545 -191 -36 -8 -150 -43 -255 -79
-258 -89 -460 -148 -645 -189 -86 -18 -179 -43 -207 -54 -27 -11 -79 -25 -114
-31 -34 -6 -115 -26 -178 -45 -64 -18 -152 -40 -196 -50 -44 -9 -127 -30 -185
-45 -58 -16 -137 -31 -176 -34 -39 -4 -92 -13 -118 -21 -26 -8 -98 -24 -159
-35 -62 -12 -173 -37 -247 -55 -74 -19 -173 -39 -220 -45 -47 -6 -110 -17
-140 -25 -58 -14 -172 -31 -430 -65 -233 -29 -423 -57 -540 -79 -58 -11 -157
-24 -220 -30 -190 -18 -493 -51 -510 -56 -27 -8 -351 -46 -470 -55 -364 -26
-752 -35 -1560 -34 -1174 1 -1716 22 -2070 79 -52 9 -138 20 -190 25 -52 5
-174 18 -270 29 -96 11 -204 22 -240 26 -36 3 -153 21 -260 40 -107 18 -283
43 -390 55 -107 12 -260 34 -340 50 -80 17 -176 34 -215 40 -81 12 -258 50
-430 92 -65 16 -148 33 -185 38 -136 19 -324 60 -592 129 -152 39 -287 75
-300 80 -12 5 -48 12 -78 16 -30 4 -113 25 -184 46 -71 22 -170 46 -219 55
-50 8 -116 26 -146 39 -31 12 -130 46 -221 75 -91 29 -178 59 -193 67 -16 8
-67 21 -115 28 -52 9 -137 34 -212 63 -69 27 -224 82 -345 122 -279 91 -325
108 -520 191 -188 79 -329 135 -371 145 -16 4 -74 27 -129 52 -212 94 -372
160 -430 177 -33 9 -91 34 -130 55 -38 20 -83 41 -99 44 -15 4 -137 60 -270
125 -132 65 -297 144 -366 176 -69 32 -131 62 -138 68 -6 5 -67 37 -135 72
-233 118 -483 247 -642 333 -88 48 -191 101 -230 119 -38 17 -89 48 -112 68
-24 20 -78 55 -120 77 -43 23 -130 72 -193 110 -63 37 -118 68 -122 68 -4 0
-162 100 -350 221 -189 122 -372 240 -408 263 -36 22 -108 72 -160 110 -52 39
-131 95 -176 126 -182 124 -212 146 -283 199 -41 31 -96 67 -122 81 -27 14
-109 70 -181 126 -73 55 -162 120 -198 144 -92 62 -244 183 -315 250 -61 59
-172 145 -273 213 -49 33 -116 87 -317 257 -159 134 -480 423 -605 544 -58 56
-136 129 -174 162 -57 48 -402 381 -531 512 -163 166 -553 563 -611 622 -40
42 -89 97 -108 124 -19 27 -97 114 -173 195 -153 161 -246 267 -310 352 -23
31 -65 82 -93 115 -29 32 -64 77 -78 99 -14 22 -59 79 -101 127 -114 130 -182
215 -304 382 -61 83 -152 205 -202 271 -50 66 -154 212 -230 325 -177 263
-163 244 -279 390 -55 69 -111 145 -126 170 -46 77 -169 270 -245 385 -40 61
-101 160 -135 220 -35 61 -77 128 -94 150 -34 43 -113 173 -196 325 -29 52
-63 108 -75 125 -13 16 -40 62 -60 100 -21 39 -75 133 -121 210 -45 77 -86
149 -90 160 -4 11 -27 54 -51 96 -23 42 -48 91 -55 110 -6 19 -41 86 -76 149
-36 63 -71 135 -79 159 -7 24 -25 65 -39 90 -47 83 -204 395 -204 404 0 5 -41
93 -91 196 -109 222 -191 401 -209 456 -7 22 -32 74 -56 116 -64 114 -101 199
-109 249 -4 25 -19 74 -35 110 -52 121 -102 245 -140 345 -20 55 -63 158 -94
228 -31 71 -79 195 -106 275 -63 189 -142 412 -169 480 -12 29 -34 113 -50
185 -16 73 -45 170 -64 217 -20 47 -47 128 -62 180 -15 52 -40 133 -56 179
-16 46 -41 129 -55 185 -14 55 -55 202 -91 326 -36 124 -75 275 -88 335 -12
61 -30 128 -39 149 -9 22 -25 94 -36 160 -18 113 -47 244 -118 546 -45 188
-129 650 -140 775 -9 91 -21 142 -72 294 -71 214 -121 324 -187 411 -26 34
-77 102 -113 150 -142 192 -172 223 -352 357 -95 71 -218 155 -273 188 -143
85 -303 165 -330 165 -13 0 -80 18 -149 39 -69 22 -161 45 -204 51 -42 6 -117
21 -167 32 -82 19 -127 21 -495 23 -448 2 -479 5 -825 69 -132 25 -267 48
-300 52 -33 3 -89 18 -125 31 -36 14 -103 38 -150 55 -47 17 -150 59 -230 95
-80 35 -176 78 -215 95 -90 40 -331 165 -370 191 -16 12 -44 33 -62 48 -18 15
-60 36 -94 45 -46 13 -70 27 -93 52 -17 20 -76 81 -131 137 -216 219 -372 391
-410 451 -22 35 -59 87 -82 116 -22 29 -67 100 -98 158 -31 58 -63 112 -70
120 -7 8 -20 40 -29 70 -9 30 -36 89 -61 130 -25 41 -45 79 -45 84 0 6 -18 46
-39 91 -22 44 -49 112 -61 150 -12 39 -46 142 -75 230 -29 88 -63 207 -75 265
-12 58 -39 173 -60 255 -63 244 -86 447 -57 505 10 19 34 32 102 56 96 33 311
142 359 181 16 13 52 36 80 50 28 14 91 52 139 85 49 33 114 68 145 79 31 11
93 41 137 66 81 48 126 72 385 205 80 41 175 93 211 115 36 23 153 84 260 137
222 110 374 190 393 206 18 14 575 295 606 305 14 4 59 30 102 56 86 54 200
113 238 124 14 4 54 26 90 50 36 24 96 53 135 64 39 11 106 39 150 62 144 75
230 116 301 144 38 16 128 59 199 96 72 37 153 77 181 88 29 11 75 34 103 51
27 17 75 40 106 51 30 11 142 62 248 115 105 52 216 102 245 110 51 15 194 80
407 185 55 27 124 56 154 65 29 8 79 28 110 44 31 15 74 33 96 40 22 7 87 36
145 65 58 29 152 69 210 90 58 20 173 69 255 107 83 39 175 78 205 89 30 10
120 45 200 79 80 33 197 78 260 99 64 21 156 59 205 84 50 24 144 63 210 86
185 65 300 110 415 162 58 26 150 61 205 78 126 37 232 77 415 156 80 35 231
89 335 121 193 58 502 167 632 223 39 17 100 37 134 45 34 8 89 26 123 40 33
13 105 38 159 55 54 18 138 49 187 71 53 23 129 47 192 58 56 11 144 36 193
55 136 53 452 154 567 181 57 14 148 41 203 61 55 20 123 43 150 50 28 8 136
43 240 79 105 36 226 72 270 80 44 8 100 22 125 31 84 30 155 53 280 89 69 20
172 52 230 71 58 18 130 37 160 40 30 4 89 18 130 31 41 12 111 32 155 43 132
32 443 120 560 157 65 21 147 38 200 43 50 5 108 16 130 24 115 43 267 84 475
127 85 18 189 45 230 61 41 15 120 35 175 44 117 19 161 29 270 61 44 13 168
41 275 64 107 22 253 58 323 80 71 22 148 40 171 40 40 0 223 34 356 66 89 22
539 115 770 159 41 8 122 21 180 30 190 28 383 63 510 93 69 17 150 33 180 37
76 9 392 71 487 95 81 21 156 31 403 50 99 8 169 20 222 36 43 14 117 29 165
35 49 5 133 18 188 29 55 11 168 29 250 40 83 12 240 34 350 50 193 28 338 45
624 76 73 7 170 21 215 29 127 25 289 45 441 55 159 10 249 21 457 55 80 13
182 27 225 30 43 3 137 12 208 20 191 21 371 34 635 45 351 14 575 32 825 64
66 9 215 20 330 26 328 16 514 29 720 50 147 15 328 22 795 30 333 5 664 15
736 21 310 26 1486 30 2429 9z m-31890 -9394 c15 -15 26 -41 30 -72 14 -95
138 -481 209 -649 19 -44 46 -111 62 -150 35 -89 63 -152 132 -295 30 -63 63
-135 72 -160 42 -112 286 -533 372 -641 21 -27 69 -97 106 -156 68 -109 129
-193 177 -248 14 -16 37 -52 51 -79 14 -28 58 -88 97 -134 40 -47 95 -113 122
-147 59 -74 143 -162 394 -411 133 -132 199 -190 239 -210 64 -33 82 -50 122
-121 16 -29 42 -59 57 -67 16 -8 82 -56 148 -108 66 -51 161 -120 210 -152
140 -93 213 -143 300 -207 109 -80 138 -99 225 -149 41 -23 117 -67 169 -96
51 -30 95 -54 98 -54 2 0 30 -16 61 -37 31 -20 104 -58 162 -85 57 -27 133
-67 170 -88 36 -22 94 -47 130 -56 36 -9 153 -54 260 -100 303 -129 538 -213
711 -253 47 -11 109 -29 137 -40 28 -11 96 -30 149 -41 54 -11 124 -29 156
-40 33 -12 102 -27 155 -35 213 -31 401 -55 467 -61 49 -5 76 -12 92 -26 35
-33 94 -184 119 -308 38 -188 73 -341 93 -405 10 -33 31 -114 46 -180 15 -66
40 -154 56 -195 16 -41 38 -122 49 -180 11 -58 48 -186 81 -285 34 -99 74
-227 89 -285 16 -58 51 -170 79 -250 27 -80 61 -185 75 -235 33 -116 92 -296
118 -360 12 -27 35 -90 51 -140 54 -161 98 -278 137 -362 21 -45 43 -105 49
-135 5 -29 53 -161 105 -292 53 -132 96 -244 96 -249 0 -17 59 -155 154 -359
53 -113 96 -211 96 -216 0 -8 21 -55 147 -322 25 -52 53 -116 64 -142 10 -27
32 -74 47 -105 16 -32 35 -76 42 -98 18 -58 174 -374 219 -444 21 -33 44 -81
50 -107 7 -26 28 -74 47 -106 19 -33 34 -62 34 -64 0 -3 8 -18 19 -32 10 -15
49 -88 86 -162 108 -216 116 -232 156 -290 21 -30 50 -89 65 -130 14 -41 41
-95 59 -120 35 -49 102 -168 185 -325 29 -55 60 -111 70 -125 10 -14 47 -77
82 -140 36 -63 93 -164 127 -223 35 -59 67 -122 72 -140 5 -18 34 -59 64 -91
31 -33 76 -98 102 -145 57 -105 204 -341 273 -436 27 -38 59 -90 71 -115 12
-25 48 -74 79 -110 32 -36 67 -84 79 -108 23 -45 135 -214 181 -272 15 -19 67
-93 115 -165 48 -71 118 -161 155 -198 38 -37 83 -93 100 -123 17 -31 51 -80
76 -110 24 -30 53 -71 63 -92 11 -20 43 -66 70 -102 28 -36 118 -157 200 -270
82 -113 182 -241 222 -285 39 -44 106 -123 148 -175 42 -52 84 -104 95 -115
10 -11 42 -52 71 -91 29 -38 84 -103 121 -144 38 -41 96 -104 130 -140 33 -36
80 -90 105 -120 24 -30 81 -94 126 -142 44 -47 100 -112 124 -145 23 -32 65
-83 93 -114 28 -30 98 -111 155 -178 58 -67 117 -129 132 -138 15 -9 42 -35
61 -57 18 -22 213 -222 434 -443 220 -221 422 -427 449 -457 26 -30 67 -64 91
-75 23 -11 60 -41 81 -67 21 -25 95 -93 165 -151 70 -57 151 -131 180 -164 29
-33 87 -85 128 -116 41 -31 95 -77 120 -102 25 -24 70 -65 102 -90 31 -25 118
-104 194 -175 75 -70 165 -149 198 -173 34 -25 93 -73 131 -108 93 -83 124
-109 215 -180 43 -33 109 -87 147 -120 120 -103 272 -218 344 -260 39 -22 139
-96 225 -165 85 -69 175 -138 200 -155 100 -66 305 -218 362 -269 33 -30 114
-89 179 -132 66 -44 126 -83 135 -89 38 -25 367 -246 398 -267 195 -134 324
-213 465 -287 66 -35 158 -89 205 -121 47 -31 123 -78 170 -105 47 -26 132
-78 190 -115 58 -37 141 -88 185 -113 44 -24 136 -77 205 -117 69 -39 152 -86
185 -102 33 -17 71 -38 85 -48 30 -21 161 -95 285 -160 50 -26 115 -62 145
-79 46 -26 175 -90 451 -226 25 -13 71 -30 101 -39 31 -9 77 -32 104 -51 27
-19 63 -40 79 -47 17 -7 62 -30 100 -51 147 -79 289 -147 307 -147 10 0 51
-18 91 -39 122 -67 242 -111 324 -121 85 -9 113 -28 131 -88 24 -80 24 -136 4
-237 -12 -55 -26 -140 -33 -190 -6 -49 -20 -111 -30 -136 -10 -26 -25 -82 -33
-125 -22 -114 -123 -585 -145 -679 -11 -44 -25 -129 -31 -190 -14 -133 -37
-252 -94 -490 -24 -99 -52 -232 -61 -295 -10 -63 -29 -164 -42 -225 -13 -60
-41 -200 -63 -311 -21 -110 -47 -234 -58 -275 -25 -91 -56 -258 -77 -404 -8
-60 -33 -177 -55 -260 -40 -156 -53 -220 -69 -367 -11 -100 -47 -272 -98 -468
-19 -74 -43 -193 -54 -265 -11 -71 -26 -155 -34 -185 -8 -30 -23 -104 -34
-165 -11 -60 -34 -175 -51 -255 -17 -80 -38 -190 -46 -245 -21 -139 -58 -249
-101 -296 -40 -44 -60 -47 -150 -24 -51 14 -373 16 -2858 15 -2424 -1 -2805 0
-2840 13 -40 14 -108 52 -181 100 -21 15 -64 35 -94 45 -30 11 -91 44 -135 74
-44 30 -129 83 -190 118 -224 128 -342 202 -565 353 -48 32 -77 52 -285 191
-269 180 -501 354 -615 461 -30 28 -68 60 -85 70 -28 18 -95 76 -256 220 -94
85 -245 216 -301 262 -26 21 -80 65 -120 98 -40 32 -109 93 -154 135 -44 41
-154 143 -244 225 -91 83 -223 211 -294 285 -72 74 -207 214 -301 311 -312
324 -454 475 -498 535 -24 32 -57 70 -72 84 -15 14 -47 55 -72 92 -24 37 -89
108 -145 160 -86 79 -219 226 -333 368 -16 20 -55 66 -85 102 -30 35 -98 116
-151 179 -53 63 -136 157 -185 209 -49 52 -107 122 -129 155 -21 33 -82 113
-135 179 -52 65 -104 130 -115 145 -11 14 -102 129 -203 255 -101 125 -200
251 -220 280 -20 28 -59 78 -87 111 -29 33 -67 83 -85 110 -19 28 -59 82 -90
121 -30 40 -75 102 -100 138 -25 37 -74 107 -110 157 -36 50 -90 126 -120 169
-58 83 -110 151 -201 265 -31 38 -71 95 -90 125 -48 79 -194 283 -214 300 -10
8 -29 33 -43 55 -13 22 -62 90 -107 150 -45 61 -92 130 -105 154 -12 25 -43
72 -69 106 -65 86 -195 276 -265 389 -71 113 -179 275 -238 356 -66 91 -175
255 -283 430 -27 44 -61 98 -75 119 -14 21 -46 74 -72 117 -26 44 -65 106 -88
139 -23 33 -73 110 -112 170 -39 61 -117 180 -173 265 -141 215 -223 348 -285
465 -30 55 -77 128 -105 162 -27 33 -82 114 -121 180 -39 65 -89 147 -111 183
-22 36 -47 83 -55 106 -9 22 -40 77 -70 122 -102 156 -146 227 -178 291 -31
62 -62 114 -140 231 -20 30 -64 102 -98 160 -34 58 -80 128 -102 155 -22 28
-63 95 -91 150 -28 55 -70 129 -93 165 -23 36 -75 124 -115 195 -40 72 -87
155 -105 185 -96 159 -224 384 -257 452 -21 42 -70 132 -110 200 -40 67 -95
164 -122 213 -97 174 -152 271 -225 395 -41 69 -87 150 -102 181 -15 31 -50
94 -78 141 -29 47 -52 88 -52 92 0 3 -16 31 -36 62 -20 31 -46 80 -59 108 -12
28 -59 114 -103 191 -43 77 -117 215 -162 305 -46 91 -110 205 -143 253 -32
49 -81 136 -107 193 -27 57 -82 166 -123 242 -41 75 -123 231 -182 347 -59
115 -123 234 -142 264 -20 31 -44 78 -53 106 -10 27 -57 118 -104 200 -81 142
-106 190 -179 348 -17 37 -41 77 -53 88 -13 12 -26 40 -29 63 -4 23 -38 93
-76 160 -38 65 -69 122 -69 126 0 4 -18 35 -40 69 -22 34 -40 63 -40 66 0 2
-35 77 -79 167 -43 90 -93 198 -111 240 -17 43 -43 95 -58 115 -14 21 -41 74
-60 118 -35 81 -46 101 -89 165 -12 20 -33 63 -46 96 -13 33 -49 102 -79 154
-76 132 -121 223 -152 307 -32 90 -58 141 -91 181 -14 16 -29 52 -34 79 -6 26
-36 95 -67 153 -61 112 -67 124 -147 295 -29 61 -86 178 -128 260 -42 83 -82
168 -89 190 -7 22 -23 54 -35 70 -12 17 -29 49 -38 72 -9 23 -40 84 -68 135
-28 51 -63 122 -76 157 -20 55 -72 161 -207 426 -28 56 -146 320 -146 328 0 3
-56 119 -124 259 -167 342 -191 394 -393 843 -73 162 -171 372 -233 500 -33
66 -68 143 -78 170 -11 28 -42 95 -70 150 -27 55 -55 122 -61 149 -7 27 -28
78 -47 114 -18 36 -34 70 -34 76 0 6 -16 42 -35 81 -29 60 -92 210 -167 400
-11 28 -51 115 -90 195 -39 80 -101 215 -138 300 -38 85 -95 216 -128 290 -32
74 -68 154 -80 177 -12 22 -24 61 -28 85 -3 23 -27 81 -53 128 -53 98 -80 158
-80 182 -1 10 -22 59 -47 110 -25 51 -61 136 -79 188 -18 52 -56 147 -83 210
-28 63 -64 149 -82 190 -17 41 -35 84 -40 95 -90 201 -121 266 -165 350 -60
111 -115 254 -115 296 0 45 45 85 159 143 126 63 232 122 367 205 53 34 113
66 133 72 44 14 282 142 394 211 45 28 120 72 167 98 47 26 171 102 277 169
106 66 195 121 198 121 8 0 188 102 205 116 8 7 107 62 220 122 284 152 300
161 329 183 14 11 67 43 116 71 50 28 140 84 202 125 61 40 135 83 165 95 29
12 94 45 143 73 50 28 119 68 155 88 71 40 307 193 419 271 62 43 180 95 219
96 7 0 24 -11 37 -24z m61716 -11 c17 -9 59 -37 93 -62 33 -25 90 -61 126 -79
89 -47 155 -89 215 -135 28 -21 78 -50 110 -65 33 -15 94 -50 135 -77 41 -27
86 -53 99 -58 13 -5 107 -60 210 -121 102 -62 219 -129 259 -150 197 -102 367
-197 412 -228 14 -10 54 -32 90 -50 36 -18 124 -70 195 -115 72 -45 164 -99
205 -120 100 -50 245 -139 300 -186 25 -21 67 -47 94 -59 27 -11 81 -41 120
-65 39 -24 161 -93 271 -153 110 -60 243 -133 295 -163 52 -30 120 -65 150
-79 30 -13 73 -35 95 -49 22 -13 81 -43 131 -66 103 -49 126 -74 132 -151 5
-66 -13 -122 -93 -289 -35 -71 -82 -177 -105 -235 -23 -58 -66 -157 -97 -220
-30 -63 -66 -151 -80 -195 -14 -44 -49 -129 -79 -190 -72 -150 -134 -292 -134
-310 0 -9 -27 -67 -60 -130 -33 -64 -67 -143 -76 -177 -8 -34 -25 -79 -35
-101 -11 -21 -35 -78 -54 -126 -18 -47 -71 -165 -118 -262 -47 -96 -89 -190
-95 -209 -5 -19 -41 -102 -79 -185 -112 -238 -143 -310 -143 -327 0 -9 -33
-83 -73 -164 -41 -82 -77 -164 -80 -183 -4 -19 -20 -55 -36 -80 -16 -25 -38
-77 -50 -114 -32 -102 -141 -339 -218 -477 -11 -19 -28 -60 -38 -90 -22 -67
-124 -284 -164 -350 -16 -27 -36 -70 -44 -97 -20 -64 -53 -139 -76 -172 -10
-14 -31 -60 -45 -101 -15 -41 -59 -136 -98 -210 -39 -73 -81 -163 -95 -199
-13 -35 -51 -119 -85 -185 -33 -67 -66 -137 -73 -156 -7 -19 -33 -72 -57 -116
-25 -45 -69 -133 -98 -195 -185 -403 -209 -453 -290 -604 -27 -50 -54 -113
-60 -139 -6 -26 -21 -62 -34 -80 -13 -17 -27 -42 -31 -56 -11 -35 -123 -266
-188 -385 -30 -55 -66 -122 -80 -150 -45 -87 -167 -351 -167 -362 0 -5 -17
-34 -39 -64 -21 -30 -50 -85 -65 -124 -15 -38 -79 -174 -142 -302 -63 -128
-114 -236 -114 -241 0 -4 -24 -46 -52 -93 -62 -99 -88 -152 -88 -180 0 -26
-16 -57 -46 -89 -13 -14 -42 -66 -64 -115 -63 -137 -193 -393 -234 -459 -20
-33 -36 -65 -36 -72 0 -16 -156 -323 -174 -343 -8 -9 -42 -76 -75 -150 -33
-73 -67 -141 -75 -150 -8 -9 -74 -133 -146 -276 -73 -143 -145 -283 -161 -311
-16 -28 -29 -61 -29 -72 0 -12 -14 -36 -30 -54 -17 -18 -55 -86 -85 -151 -29
-64 -69 -143 -88 -174 -35 -59 -105 -187 -227 -413 -93 -173 -120 -221 -140
-250 -10 -14 -34 -58 -54 -98 -20 -40 -80 -148 -133 -240 -53 -92 -106 -192
-118 -223 -12 -30 -55 -111 -96 -180 -40 -68 -85 -154 -100 -191 -16 -37 -45
-94 -67 -125 -21 -32 -60 -96 -87 -143 -27 -47 -65 -110 -86 -140 -20 -30 -59
-101 -87 -158 -28 -56 -73 -139 -100 -185 -27 -45 -75 -129 -107 -187 -93
-168 -145 -259 -203 -355 -30 -49 -61 -105 -69 -124 -8 -19 -39 -71 -68 -115
-29 -45 -67 -110 -85 -146 -18 -35 -69 -118 -113 -185 -45 -66 -92 -149 -107
-185 -14 -36 -46 -96 -71 -135 -25 -38 -59 -92 -76 -120 -17 -27 -79 -126
-138 -220 -59 -93 -114 -186 -122 -205 -9 -19 -30 -55 -48 -80 -38 -53 -137
-214 -175 -285 -15 -27 -76 -126 -135 -220 -159 -251 -201 -318 -228 -373 -14
-28 -52 -90 -85 -139 -32 -48 -71 -110 -86 -138 -74 -141 -347 -566 -458 -713
-27 -35 -48 -69 -48 -76 0 -7 -50 -86 -111 -176 -61 -90 -115 -175 -121 -189
-5 -14 -27 -48 -48 -76 -32 -42 -199 -293 -446 -669 -32 -49 -80 -116 -108
-150 -27 -33 -87 -119 -134 -191 -47 -71 -100 -148 -117 -170 -17 -22 -48 -67
-68 -100 -20 -33 -59 -87 -87 -120 -28 -33 -69 -87 -91 -120 -69 -106 -183
-274 -214 -316 -16 -23 -53 -76 -82 -118 -28 -42 -68 -96 -88 -121 -100 -123
-144 -181 -180 -236 -21 -32 -48 -71 -59 -85 -12 -14 -31 -39 -42 -55 -89
-122 -285 -378 -324 -424 -26 -30 -64 -84 -86 -119 -21 -35 -56 -78 -77 -94
-21 -17 -54 -57 -73 -89 -19 -31 -59 -88 -88 -125 -29 -37 -75 -102 -103 -143
-28 -41 -99 -131 -158 -200 -59 -69 -119 -143 -133 -165 -14 -22 -55 -72 -93
-112 -37 -39 -87 -100 -111 -135 -59 -87 -194 -246 -245 -288 -23 -19 -60 -60
-81 -90 -22 -30 -55 -68 -72 -85 -18 -16 -56 -61 -85 -100 -29 -38 -108 -126
-175 -195 -68 -69 -141 -147 -163 -175 -21 -27 -109 -125 -196 -216 -86 -91
-216 -233 -288 -316 -138 -155 -902 -920 -963 -963 -35 -24 -154 -129 -284
-251 -39 -36 -84 -75 -100 -87 -45 -34 -188 -167 -278 -259 -44 -45 -112 -104
-152 -130 -85 -58 -242 -179 -311 -240 -72 -64 -223 -178 -350 -265 -431 -293
-654 -434 -852 -539 -65 -34 -136 -74 -158 -88 -91 -57 -245 -139 -308 -164
-38 -15 -110 -54 -160 -88 -51 -33 -112 -65 -137 -72 -35 -9 -629 -11 -2700
-7 -2489 5 -2831 3 -3003 -16 l-68 -7 -42 44 c-50 52 -65 95 -78 223 -5 50
-27 181 -48 291 -22 110 -45 241 -52 290 -6 50 -22 119 -36 155 -14 39 -28
105 -33 165 -6 55 -27 172 -49 260 -86 354 -101 428 -116 565 -9 90 -30 201
-55 299 -21 86 -57 258 -79 381 -22 124 -53 279 -69 345 -16 66 -37 167 -47
225 -10 58 -37 204 -60 325 -24 121 -46 243 -50 270 -4 28 -21 100 -37 160
-52 196 -86 372 -128 665 -5 36 -20 101 -34 145 -23 77 -90 409 -121 605 -8
52 -24 119 -35 149 -12 29 -30 108 -41 175 -11 66 -29 154 -40 194 -17 62 -19
79 -8 103 19 48 106 117 168 136 78 22 376 150 431 184 26 16 51 29 55 29 16
0 312 144 351 171 23 15 86 46 140 67 55 22 164 77 244 123 80 45 190 102 245
126 125 54 284 135 350 178 28 18 67 38 87 44 20 7 54 23 74 37 20 14 118 70
218 125 239 131 231 127 320 179 43 25 113 71 156 102 43 31 120 81 172 112
51 30 135 81 187 113 51 32 145 88 208 125 63 37 165 101 226 142 62 40 127
81 145 90 19 10 97 66 175 125 78 59 184 133 236 165 52 31 119 76 150 100 31
23 99 71 151 105 52 35 138 94 190 132 52 38 133 94 180 125 47 31 120 89 162
129 42 40 97 84 121 98 56 33 253 175 343 247 38 31 98 76 134 102 36 25 92
70 125 100 33 29 76 65 95 79 19 15 91 76 160 136 69 60 143 120 165 133 58
34 77 51 320 279 121 114 270 247 330 298 61 50 119 101 130 113 25 28 266
239 343 300 31 25 82 71 112 104 30 32 113 115 184 185 336 330 763 774 873
909 32 39 148 168 258 287 110 119 213 233 228 253 15 20 54 64 86 97 32 33
75 83 96 110 21 28 69 82 106 120 37 39 84 95 105 125 21 30 83 108 138 173
56 64 121 141 145 170 23 28 68 81 100 116 64 73 165 208 247 331 31 47 89
123 129 170 39 47 100 125 136 174 35 48 103 139 150 200 120 156 225 305 293
414 32 51 85 125 117 163 32 38 72 93 89 122 40 68 131 211 166 262 64 92 203
313 294 467 19 32 62 93 97 135 35 43 75 103 90 133 14 30 43 81 65 112 21 32
58 95 82 140 23 46 57 107 75 137 17 29 51 92 75 140 23 47 73 136 111 196 37
61 81 137 96 170 30 65 89 173 149 275 21 36 63 112 93 170 29 58 65 128 80
155 14 28 49 98 76 157 27 59 60 122 74 140 28 38 124 227 156 308 13 30 49
109 81 175 33 66 78 165 101 220 23 55 76 174 119 265 122 261 229 501 273
610 14 36 44 105 66 154 23 48 41 92 41 98 0 5 20 55 44 111 25 56 72 181 106
277 33 96 88 247 121 335 34 88 81 215 105 283 24 68 49 133 56 145 13 24 74
217 117 372 16 55 54 172 85 260 32 88 75 225 96 305 22 80 60 204 85 275 26
72 60 186 76 254 17 68 34 132 39 141 5 9 27 91 50 181 22 90 52 207 65 259
48 191 74 307 89 395 22 135 83 270 138 304 11 7 72 17 137 21 285 23 470 50
579 85 59 19 143 43 187 54 165 39 302 79 349 100 27 13 79 27 115 33 36 6
104 27 151 48 47 21 99 42 115 46 45 11 239 91 335 139 47 23 116 50 154 59
38 9 88 30 111 46 23 16 84 45 134 64 51 19 123 54 159 78 37 25 113 71 170
104 56 32 149 88 205 123 56 35 109 66 117 69 8 3 99 62 203 131 103 69 210
140 237 156 27 17 82 60 122 96 40 36 102 87 138 114 36 26 112 93 170 150
279 273 639 633 670 671 19 24 82 95 140 159 112 125 130 149 325 435 69 102
159 233 200 292 41 59 88 140 105 180 17 40 37 83 45 95 27 41 77 137 95 183
10 26 45 102 78 171 92 190 157 334 202 444 61 148 206 588 225 679 17 87 27
110 53 126 22 14 102 5 143 -15z m-24510 -23971 c19 -9 38 -32 49 -57 20 -44
100 -440 150 -742 47 -276 60 -344 82 -424 11 -41 26 -111 34 -155 19 -116 61
-313 78 -371 30 -97 68 -292 81 -413 8 -67 39 -234 69 -370 31 -136 62 -297
70 -358 8 -60 27 -146 41 -190 14 -43 34 -138 45 -210 21 -143 71 -399 94
-482 8 -29 17 -87 21 -130 3 -42 15 -113 25 -157 48 -205 73 -300 91 -342 10
-24 30 -88 44 -140 30 -117 23 -165 -32 -213 -36 -32 -67 -37 -138 -20 -45 11
-14267 14 -14395 4 -93 -8 -169 8 -211 43 -25 22 -29 31 -29 78 0 29 13 96 29
151 61 203 130 492 141 584 6 52 18 118 26 145 21 71 68 309 104 524 17 101
33 187 35 191 3 5 10 43 16 86 6 44 28 153 49 244 22 91 49 212 60 270 11 58
27 128 36 155 8 28 19 91 25 140 9 84 32 203 79 405 18 77 51 250 79 421 6 36
20 92 31 124 26 76 48 193 65 345 7 69 25 164 39 212 14 48 32 138 41 200 9
62 25 172 36 243 11 72 22 145 25 162 3 18 13 37 24 43 44 23 156 7 315 -45
109 -36 319 -91 380 -100 27 -4 72 -16 100 -26 27 -11 100 -27 160 -35 165
-23 370 -63 412 -81 34 -14 190 -44 373 -73 118 -19 324 -62 389 -81 60 -18
259 -44 525 -69 159 -14 371 -46 479 -72 49 -11 143 -24 210 -29 195 -13 499
-47 621 -69 68 -12 196 -24 326 -30 118 -5 297 -16 397 -25 100 -8 343 -19
540 -25 197 -6 448 -15 558 -20 300 -14 1375 -3 1910 20 127 5 356 14 510 20
289 12 462 26 720 59 83 11 233 27 335 36 220 19 314 32 600 85 202 37 329 51
580 65 119 7 185 19 455 80 105 24 222 46 260 50 91 9 395 62 430 75 14 6 116
28 226 50 110 23 228 49 262 60 34 10 85 22 112 25 132 17 410 92 489 132 82
42 169 52 217 27z m-33362 -845 c34 -17 73 -45 86 -62 14 -18 84 -111 157
-208 73 -97 169 -223 213 -279 80 -102 172 -222 294 -381 35 -46 108 -133 161
-194 176 -201 257 -300 273 -330 8 -17 73 -95 144 -174 180 -200 346 -396 392
-461 48 -68 201 -244 247 -285 19 -16 53 -58 76 -91 24 -34 129 -154 234 -265
105 -112 245 -265 312 -340 66 -75 189 -207 273 -295 85 -87 179 -185 209
-218 30 -32 87 -80 126 -107 70 -49 154 -139 154 -166 0 -24 -26 -77 -48 -97
-24 -21 -68 -18 -187 15 -74 20 -181 24 -255 9 -32 -7 -72 -5 -140 7 -66 11
-119 13 -175 8 -44 -4 -361 -6 -705 -5 -417 1 -643 -2 -680 -10 -30 -6 -109
-15 -175 -20 -168 -14 -353 -38 -465 -61 -52 -11 -145 -26 -207 -34 -62 -8
-129 -21 -150 -30 -21 -9 -79 -25 -129 -36 -83 -18 -300 -87 -384 -122 -19 -8
-62 -20 -95 -26 -33 -6 -105 -33 -160 -60 -55 -27 -122 -56 -150 -65 -27 -9
-95 -39 -150 -68 -55 -28 -170 -86 -255 -128 -186 -92 -320 -169 -452 -259
-54 -36 -127 -84 -162 -106 -35 -22 -95 -66 -133 -97 -134 -113 -219 -181
-273 -221 -30 -23 -114 -97 -185 -166 -72 -70 -153 -146 -180 -171 -77 -70
-213 -215 -295 -315 -41 -49 -99 -117 -129 -150 -30 -33 -70 -84 -89 -115 -19
-30 -62 -85 -96 -121 -34 -37 -82 -100 -109 -140 -26 -41 -81 -121 -123 -179
-84 -118 -151 -235 -199 -348 -18 -43 -52 -108 -75 -147 -46 -75 -117 -227
-157 -339 -14 -38 -40 -97 -58 -131 -18 -34 -37 -79 -41 -100 -4 -21 -33 -116
-66 -209 -32 -94 -70 -214 -84 -266 -14 -52 -36 -124 -50 -160 -13 -36 -33
-123 -43 -195 -11 -71 -37 -249 -59 -395 -22 -146 -45 -335 -51 -420 -16 -223
-16 -27755 0 -27925 17 -184 23 -175 -208 -287 -103 -50 -231 -106 -283 -125
-118 -42 -283 -122 -373 -180 -38 -24 -105 -61 -150 -83 -45 -22 -140 -81
-212 -130 -71 -50 -186 -128 -255 -175 -128 -86 -256 -188 -345 -274 -27 -27
-91 -82 -141 -123 -230 -185 -335 -286 -442 -428 -23 -30 -78 -95 -122 -145
-140 -157 -321 -390 -425 -545 -169 -252 -413 -705 -532 -990 -42 -97 -143
-391 -143 -413 0 -5 -18 -48 -41 -96 -34 -71 -44 -108 -59 -213 -11 -70 -26
-147 -33 -170 -35 -105 -89 -389 -107 -558 -5 -52 -16 -158 -24 -235 -22 -201
-39 -519 -32 -595 3 -36 6 -346 7 -690 1 -344 5 -737 9 -875 9 -287 7 -298
-65 -341 -50 -29 -56 -29 -340 -15 -132 7 -930 11 -2145 11 -2156 0 -2492 6
-2660 45 -58 14 -179 36 -270 50 -379 58 -537 95 -746 175 -60 24 -166 62
-236 86 -71 25 -170 63 -220 85 -51 23 -127 56 -168 74 -164 71 -451 218 -555
284 -60 38 -128 80 -150 94 -409 247 -678 454 -980 752 -50 50 -126 124 -169
165 -43 41 -103 104 -134 140 -31 36 -85 95 -119 132 -35 36 -63 71 -63 76 0
6 -26 44 -58 84 -84 106 -209 279 -280 389 -34 53 -72 105 -83 115 -12 10 -41
60 -65 109 -23 50 -75 149 -114 220 -40 72 -81 152 -91 178 -11 27 -44 90 -73
141 -30 50 -65 120 -79 156 -14 36 -59 146 -102 245 -50 118 -80 202 -87 245
-5 36 -29 119 -53 185 -53 147 -140 496 -160 642 -9 60 -18 114 -20 122 -3 8
-12 75 -20 150 -9 75 -20 165 -25 201 -6 36 -13 216 -16 400 -7 381 10 691 51
935 13 77 27 167 30 200 4 33 15 92 25 130 10 39 26 111 34 161 9 49 22 112
30 140 8 27 28 114 46 194 18 80 43 187 56 239 13 51 24 110 24 131 0 50 52
321 84 440 14 52 41 174 60 270 19 96 51 245 71 330 20 85 47 215 61 289 13
73 32 165 43 205 10 39 25 116 31 171 12 102 71 378 115 541 14 49 25 102 25
116 0 47 70 400 115 578 61 240 93 384 104 455 8 53 41 229 101 525 10 52 33
156 50 230 17 74 40 187 51 250 11 63 37 187 59 275 21 88 46 212 55 275 24
172 34 227 60 315 33 115 92 389 114 535 11 69 26 144 35 167 8 24 22 87 31
140 9 54 23 124 31 156 8 31 19 94 25 140 5 45 18 114 28 152 11 39 33 138 51
220 17 83 47 206 65 275 32 119 50 217 76 410 6 47 32 173 59 280 49 197 94
408 105 490 3 25 17 80 30 123 14 43 29 118 35 167 5 48 12 94 15 102 3 7 19
87 35 178 17 91 44 215 60 275 30 111 49 209 76 384 7 51 27 135 43 185 16 50
36 148 45 217 9 70 32 182 50 250 52 192 64 244 86 384 11 72 32 171 45 222
24 91 87 425 101 533 3 30 15 77 25 103 11 26 26 93 34 147 8 54 35 179 59
277 70 283 104 442 115 533 16 140 38 253 95 495 30 127 62 268 71 315 9 47
27 135 40 195 13 61 34 166 45 235 50 293 162 806 210 955 19 60 28 115 55
345 8 74 28 172 48 240 19 63 39 135 45 160 27 110 62 292 72 367 6 46 19 115
30 155 10 40 26 111 35 158 9 47 34 155 55 240 21 85 50 223 65 305 36 193 65
337 114 561 21 100 45 226 51 280 12 100 72 378 115 534 13 47 30 137 39 200
9 63 27 153 41 200 29 103 70 305 84 418 6 46 20 114 30 150 11 37 38 153 60
257 48 228 95 429 111 470 6 17 15 80 20 140 5 64 26 183 49 285 22 96 61 274
86 394 25 121 52 234 60 253 8 19 20 73 26 121 13 95 76 407 139 682 22 96 47
220 55 275 9 55 25 136 36 180 23 95 48 222 85 440 15 88 38 198 52 245 40
139 59 224 102 455 23 121 54 279 70 350 16 72 36 164 43 205 8 41 39 199 70
350 30 151 61 318 67 370 6 52 21 154 32 225 21 140 21 135 43 485 12 183 26
300 65 530 27 162 61 340 74 395 40 165 84 371 112 530 14 83 39 186 54 230
15 44 30 100 34 125 3 25 22 97 42 160 41 134 85 284 144 495 23 83 62 202 87
265 25 63 74 197 109 297 34 100 72 199 82 220 11 21 41 97 67 168 26 72 74
186 106 254 32 68 59 128 59 133 0 5 24 62 54 126 29 64 65 149 80 187 14 39
34 84 43 100 9 17 58 111 108 210 51 99 109 212 130 250 45 84 86 163 100 192
6 11 32 54 59 94 27 41 65 107 86 149 78 155 178 338 228 415 28 44 72 115 97
159 25 43 62 99 84 125 55 66 155 209 186 267 45 81 263 400 341 497 140 175
228 287 252 322 15 23 56 71 91 108 36 37 72 77 80 90 9 13 37 48 63 78 159
184 247 286 274 319 96 120 549 599 621 658 28 24 64 59 78 78 15 19 62 65
104 102 43 37 195 168 337 292 142 124 271 233 285 242 15 9 47 43 71 75 30
40 60 67 97 86 30 15 79 49 110 75 31 26 74 61 96 77 22 16 63 50 90 76 28 26
104 82 170 125 65 42 164 113 219 156 56 43 128 92 161 110 33 17 87 55 121
82 33 28 102 76 153 106 137 82 352 214 471 290 58 37 121 75 140 85 19 10 94
54 165 98 72 45 202 116 290 160 88 43 167 85 175 92 9 8 139 73 289 145 150
71 287 140 303 152 17 11 60 27 96 35 36 7 87 26 112 42 40 26 254 115 460
191 41 16 138 55 215 88 77 33 185 76 240 97 55 20 118 45 140 55 22 10 72 21
110 25 47 5 94 19 144 42 69 32 231 86 361 120 30 8 97 28 148 44 51 16 105
29 121 29 16 0 57 9 92 20 35 10 102 28 149 39 47 10 149 35 227 55 338 86
732 166 816 166 79 0 216 18 385 51 84 16 199 34 255 40 56 5 140 14 187 20
47 6 130 15 185 20 55 5 124 14 154 19 30 6 109 10 175 11 67 0 153 6 191 13
116 22 154 20 224 -15z m54281 1 c256 -17 606 -49 700 -65 47 -7 112 -17 145
-21 33 -4 96 -17 139 -30 44 -13 105 -24 135 -24 61 0 362 -35 426 -50 22 -5
123 -25 225 -44 216 -42 367 -77 500 -117 52 -16 160 -42 240 -60 80 -17 166
-40 193 -51 26 -11 95 -31 155 -43 114 -25 355 -98 435 -134 27 -11 74 -27
105 -35 31 -8 100 -31 152 -51 52 -21 176 -66 275 -100 298 -104 373 -132 407
-153 32 -20 154 -68 233 -92 22 -7 74 -32 115 -55 41 -23 97 -47 123 -54 43
-10 197 -84 357 -170 30 -16 87 -45 125 -63 146 -71 352 -178 410 -213 33 -20
98 -54 144 -77 46 -22 145 -78 219 -125 74 -46 158 -96 186 -110 28 -15 76
-43 106 -63 30 -20 116 -74 190 -120 178 -109 427 -272 465 -303 17 -14 69
-51 116 -83 115 -80 293 -214 392 -297 45 -37 162 -129 261 -204 173 -131 318
-250 401 -328 22 -20 83 -72 135 -113 52 -42 139 -119 192 -172 201 -198 258
-252 316 -295 33 -25 72 -62 88 -82 16 -21 83 -93 149 -159 67 -67 152 -157
190 -200 38 -44 94 -105 123 -137 29 -32 78 -91 109 -130 31 -40 88 -106 127
-147 39 -41 100 -113 134 -160 35 -47 85 -107 110 -135 26 -27 72 -79 103
-115 31 -36 71 -80 88 -97 17 -18 51 -63 75 -100 25 -38 76 -111 113 -164 37
-53 102 -144 143 -202 41 -58 98 -142 125 -186 90 -145 177 -275 224 -333 42
-53 91 -131 271 -438 91 -155 198 -344 229 -405 14 -27 31 -55 38 -62 6 -7 17
-30 24 -50 6 -21 26 -58 44 -83 41 -57 168 -300 200 -380 13 -34 38 -84 56
-112 17 -29 55 -106 84 -172 29 -67 72 -164 95 -216 168 -383 261 -621 386
-988 13 -40 46 -127 73 -195 27 -67 53 -138 59 -157 6 -19 28 -93 50 -165 97
-313 152 -505 161 -566 6 -37 17 -82 25 -100 14 -35 41 -161 96 -449 18 -91
44 -217 60 -280 15 -63 33 -146 39 -185 7 -38 32 -176 56 -305 30 -161 48
-287 55 -400 6 -91 18 -203 26 -250 11 -60 13 -114 8 -187 -5 -77 -3 -117 9
-170 9 -37 24 -120 32 -183 19 -131 94 -526 130 -675 13 -55 26 -125 30 -155
6 -57 32 -180 91 -436 19 -83 43 -202 53 -265 20 -121 82 -404 106 -479 8 -25
21 -101 30 -169 9 -68 29 -165 45 -215 41 -131 49 -165 60 -258 14 -114 57
-327 80 -393 10 -29 24 -89 30 -132 18 -123 79 -429 105 -528 13 -49 43 -187
65 -305 23 -118 57 -276 76 -350 19 -74 39 -182 45 -240 5 -58 18 -136 28
-175 10 -38 35 -149 56 -245 20 -96 53 -245 72 -330 35 -154 52 -236 71 -340
25 -140 45 -234 72 -340 16 -63 34 -155 40 -203 13 -108 26 -177 45 -242 7
-27 24 -97 35 -155 12 -58 33 -139 46 -180 13 -41 29 -118 34 -170 13 -115 51
-321 90 -490 16 -69 40 -181 54 -250 14 -69 41 -192 61 -275 20 -82 49 -215
66 -295 16 -80 40 -185 54 -235 13 -49 34 -146 45 -215 34 -209 57 -325 94
-479 33 -138 68 -324 86 -456 4 -33 21 -116 38 -185 17 -69 42 -172 56 -230
33 -140 112 -535 126 -635 6 -44 20 -116 30 -160 42 -181 70 -313 76 -355 3
-25 32 -153 64 -285 32 -132 68 -301 80 -375 11 -74 34 -193 50 -265 16 -71
37 -170 46 -220 9 -49 29 -141 45 -203 16 -63 34 -146 40 -185 6 -40 19 -106
29 -147 10 -41 35 -160 55 -265 20 -104 51 -264 70 -355 19 -91 42 -208 51
-260 8 -52 40 -193 70 -314 29 -120 63 -279 74 -355 11 -75 28 -167 39 -206
10 -38 22 -97 25 -129 4 -33 18 -103 31 -155 90 -353 159 -687 176 -841 4 -47
22 -125 39 -174 16 -50 30 -102 30 -117 0 -29 47 -244 110 -509 28 -114 40
-187 40 -236 0 -43 8 -97 19 -135 11 -35 36 -136 55 -224 41 -190 120 -528
141 -605 8 -30 15 -68 15 -85 0 -45 66 -394 90 -473 11 -37 24 -98 30 -137 24
-152 102 -524 124 -590 13 -38 36 -149 50 -245 14 -96 37 -220 51 -275 14 -55
37 -165 51 -245 26 -147 82 -404 108 -495 8 -27 31 -135 51 -239 20 -103 40
-199 45 -212 5 -12 14 -63 20 -111 16 -125 44 -259 100 -488 51 -206 94 -421
106 -535 4 -36 13 -83 21 -105 16 -45 81 -348 118 -556 14 -74 36 -169 50
-209 14 -41 30 -114 36 -164 6 -50 30 -179 54 -286 24 -107 60 -278 80 -380
20 -101 47 -223 60 -270 29 -104 61 -279 69 -380 4 -41 28 -165 55 -275 80
-331 100 -417 112 -494 6 -41 18 -93 26 -115 8 -23 23 -102 33 -176 11 -74 24
-163 29 -198 35 -233 46 -1007 18 -1282 -9 -85 -19 -191 -22 -235 -9 -119 -40
-307 -68 -420 -14 -55 -42 -170 -62 -255 -20 -85 -52 -191 -70 -235 -19 -44
-41 -118 -50 -165 -17 -98 -52 -187 -233 -580 -134 -292 -243 -496 -349 -655
-33 -49 -68 -106 -78 -125 -10 -19 -34 -57 -53 -85 -20 -27 -74 -106 -121
-175 -100 -148 -181 -249 -307 -385 -117 -127 -160 -178 -196 -237 -17 -28
-48 -59 -76 -76 -26 -16 -65 -46 -87 -67 -22 -21 -96 -91 -165 -156 -69 -65
-163 -145 -210 -179 -47 -34 -116 -88 -155 -120 -80 -69 -336 -243 -434 -297
-36 -20 -80 -46 -97 -59 -52 -38 -295 -170 -376 -203 -42 -18 -101 -47 -132
-66 -30 -18 -79 -41 -108 -51 -29 -9 -118 -47 -198 -85 -80 -37 -165 -74 -190
-82 -25 -8 -103 -35 -175 -59 -131 -45 -183 -59 -355 -99 -52 -12 -133 -34
-180 -49 -47 -16 -121 -33 -165 -40 -44 -6 -125 -20 -180 -31 -55 -10 -140
-23 -190 -28 -49 -6 -133 -14 -185 -20 -246 -27 -610 -31 -2620 -31 -1534 0
-2110 -3 -2180 -12 -118 -14 -160 -7 -209 38 -63 56 -67 77 -49 223 14 109 16
253 15 1086 l-2 960 -28 260 c-55 525 -53 511 -100 656 -25 77 -48 168 -52
210 -9 93 -28 166 -59 227 -13 26 -33 84 -44 130 -26 101 -168 474 -227 597
-127 261 -321 620 -392 725 -13 19 -44 66 -70 104 -25 38 -74 103 -107 145
-34 42 -89 112 -122 155 -196 263 -214 284 -264 309 -14 7 -41 37 -61 67 -51
78 -396 420 -525 520 -59 47 -148 119 -198 161 -50 41 -129 101 -176 133 -47
32 -98 70 -115 86 -16 15 -43 34 -60 42 -56 27 -106 58 -160 98 -29 22 -83 51
-119 66 -37 14 -104 49 -149 77 -224 136 -487 260 -674 317 -51 15 -112 40
-137 54 -64 37 -80 73 -80 171 4 17667 2 28022 -6 28115 -5 63 -16 151 -25
195 -15 80 -54 336 -81 538 -11 75 -24 126 -44 170 -17 34 -30 69 -30 78 0 22
-83 299 -118 394 -16 44 -35 107 -42 140 -7 33 -32 98 -55 145 -23 47 -46 95
-49 108 -4 13 -56 116 -115 230 -60 114 -113 223 -119 242 -7 19 -35 73 -63
120 -29 47 -74 123 -101 170 -28 46 -81 117 -118 157 -43 46 -71 86 -75 106
-10 46 -39 96 -81 142 -20 22 -49 58 -66 80 -16 22 -64 81 -107 130 -143 165
-265 308 -312 364 -26 31 -66 71 -90 90 -24 19 -69 58 -99 88 -138 135 -329
300 -457 395 -327 241 -398 290 -484 333 -27 14 -87 52 -132 84 -101 71 -169
111 -189 111 -9 0 -38 15 -66 34 -27 18 -83 47 -123 64 -41 17 -123 54 -184
82 -141 66 -340 146 -402 161 -26 7 -61 19 -77 27 -17 8 -71 25 -120 39 -50
13 -132 37 -183 53 -50 16 -138 39 -195 50 -57 12 -153 35 -214 51 -129 34
-260 53 -469 69 -82 6 -179 15 -215 20 -159 22 -450 30 -1074 30 -369 0 -701
4 -737 9 -79 10 -134 2 -209 -33 -68 -32 -101 -32 -167 -1 -84 39 -115 110
-75 177 9 16 56 56 103 88 47 32 101 78 121 102 19 24 99 106 178 183 78 77
167 172 198 210 31 39 79 93 106 121 28 28 89 96 136 150 46 54 123 138 170
186 180 182 259 269 380 412 69 82 134 156 145 165 11 9 33 34 49 56 17 22 51
65 76 95 25 30 82 98 125 150 44 52 113 133 155 180 131 147 179 205 325 397
33 43 81 101 107 130 27 30 52 69 58 91 7 27 26 54 63 87 98 89 117 109 162
176 24 36 64 88 88 115 55 63 136 174 177 244 18 30 60 86 95 125 34 38 78 95
97 125 49 76 123 157 167 181 40 22 89 22 421 -1z m-2255 -7784 c383 -5 748
-24 810 -42 91 -27 351 -139 390 -169 17 -12 62 -39 102 -58 39 -20 74 -41 78
-47 3 -6 41 -33 83 -62 151 -101 235 -173 329 -283 184 -215 394 -613 414
-786 5 -42 18 -97 30 -124 14 -32 24 -84 30 -159 5 -61 11 -120 14 -131 3 -11
5 -6125 5 -13587 0 -9657 3 -13589 11 -13644 12 -87 0 -182 -29 -228 l-17 -27
-27140 2 c-14927 2 -27162 3 -27190 3 -27 0 -91 -6 -142 -13 -105 -17 -151 -9
-202 35 -44 37 -52 79 -41 214 6 72 10 5162 10 13665 0 8356 4 13577 10 13620
5 39 9 98 10 132 0 42 8 85 25 129 14 36 25 87 25 113 0 28 10 67 26 101 14
30 43 99 65 153 53 132 81 187 144 277 29 41 59 89 68 105 9 17 50 71 92 120
42 50 83 102 92 116 8 14 36 38 62 55 25 16 75 55 110 87 35 32 83 68 105 81
23 13 86 50 141 81 338 195 466 234 878 268 116 9 5573 12 25160 10 13757 -1
25206 -4 25442 -7z m4350 -33196 c164 -8 190 -12 290 -43 235 -74 376 -128
505 -194 160 -81 156 -78 256 -171 43 -40 101 -86 129 -102 35 -20 82 -66 150
-146 147 -172 218 -275 272 -393 19 -42 49 -105 68 -141 38 -73 81 -215 133
-435 l35 -150 3 -960 c2 -654 7 -988 15 -1047 11 -80 10 -89 -8 -120 -29 -50
-80 -81 -123 -74 -19 4 -130 11 -246 16 -237 11 -61835 6 -61991 -5 -88 -6
-95 -5 -144 21 -91 50 -103 87 -75 235 12 61 15 236 16 975 1 494 6 932 11
972 12 102 124 504 158 571 16 31 46 91 66 133 20 43 58 108 83 145 25 37 63
97 85 133 21 36 72 99 111 140 40 41 81 87 90 102 10 15 41 39 69 54 55 28
124 75 197 135 25 20 79 56 120 79 41 23 93 53 115 66 22 13 67 33 100 43 33
11 126 44 208 75 172 65 227 76 442 85 236 11 58645 12 58860 1z"/>
<path d="M50470 81975 c-74 -13 -155 -31 -180 -40 -25 -9 -91 -27 -148 -40
-57 -14 -127 -37 -155 -51 -150 -76 -188 -98 -252 -143 -38 -28 -107 -75 -152
-106 -58 -39 -121 -98 -220 -206 -144 -156 -181 -209 -263 -371 -27 -53 -63
-117 -79 -143 -16 -25 -35 -70 -42 -98 -7 -29 -18 -66 -25 -83 -23 -54 -62
-226 -78 -339 -13 -93 -16 -288 -19 -1240 -2 -621 0 -1171 4 -1222 9 -98 42
-239 84 -363 14 -41 30 -95 36 -120 6 -25 27 -72 48 -105 21 -33 60 -101 86
-152 37 -73 73 -122 175 -237 71 -79 151 -161 177 -183 26 -21 86 -72 133
-113 47 -42 112 -91 145 -109 33 -19 80 -49 105 -66 73 -52 165 -94 242 -110
40 -9 114 -31 163 -49 119 -45 244 -65 472 -76 208 -11 230 -8 473 46 206 46
253 60 330 99 36 18 81 38 101 43 20 5 83 41 140 79 57 39 127 82 154 96 32
16 93 69 166 144 197 202 295 326 364 463 19 38 48 90 64 115 17 26 33 61 37
79 3 17 26 84 50 148 53 142 80 248 89 348 7 74 8 2116 2 2420 -3 133 -7 167
-29 235 -77 241 -167 439 -268 590 -26 39 -54 84 -63 100 -32 61 -332 380
-372 395 -16 6 -87 50 -159 99 -358 239 -882 344 -1336 266z"/>
<path d="M73930 81979 c-74 -10 -168 -30 -210 -43 -41 -13 -93 -27 -115 -31
-142 -23 -410 -169 -620 -338 -116 -93 -303 -293 -337 -361 -11 -22 -35 -63
-53 -91 -138 -210 -250 -500 -286 -736 -12 -83 -17 -2452 -5 -2529 40 -256
173 -599 311 -806 87 -130 341 -391 455 -468 258 -173 274 -181 605 -290 182
-60 231 -66 530 -72 275 -6 247 -10 544 66 171 43 270 85 411 175 245 158 282
184 390 289 63 61 132 134 153 161 22 28 59 73 83 102 25 28 67 96 95 150 28
54 68 125 89 158 23 35 44 83 50 115 7 30 25 95 41 144 84 252 95 363 79 801
-9 248 -11 544 -6 1015 4 466 3 683 -5 725 -8 44 -8 79 1 135 15 97 3 170 -55
350 -24 74 -49 155 -55 180 -7 25 -27 70 -45 100 -18 30 -46 84 -62 120 -39
87 -108 193 -191 292 -89 108 -279 295 -317 312 -16 7 -59 38 -95 67 -36 30
-101 71 -145 92 -91 44 -119 58 -189 95 -27 14 -95 36 -150 48 -56 12 -128 33
-161 47 -33 14 -89 30 -125 36 -112 16 -459 11 -610 -10z"/>
<path d="M54870 72233 c-338 -33 -464 -54 -540 -93 -22 -11 -68 -28 -102 -36
-34 -9 -139 -55 -234 -103 -154 -79 -182 -96 -270 -177 -53 -49 -111 -104
-128 -123 -17 -19 -68 -73 -113 -120 -106 -111 -183 -230 -309 -476 l-102
-200 -6 -90 c-3 -49 -15 -157 -27 -240 -25 -181 -26 -284 -5 -475 31 -287 46
-371 87 -503 66 -212 130 -398 155 -453 13 -28 33 -95 44 -148 27 -122 45
-174 113 -317 59 -122 136 -307 157 -374 7 -22 38 -87 69 -145 61 -113 63
-118 114 -230 47 -105 241 -472 276 -523 15 -23 45 -73 66 -112 42 -76 136
-226 183 -290 16 -22 39 -62 51 -89 32 -75 178 -278 379 -528 178 -221 191
-238 301 -393 88 -125 136 -178 442 -485 189 -190 390 -386 446 -435 116 -103
132 -118 209 -198 30 -31 78 -69 107 -83 28 -15 79 -52 112 -84 76 -72 275
-218 655 -482 41 -28 112 -79 156 -112 136 -101 462 -304 545 -339 20 -8 106
-53 192 -101 85 -47 159 -86 163 -86 4 0 51 -24 103 -54 53 -29 114 -59 136
-66 22 -7 92 -39 155 -71 133 -67 289 -134 340 -144 19 -4 89 -32 155 -62 66
-30 143 -63 170 -73 28 -9 77 -29 110 -43 33 -13 94 -31 135 -39 79 -16 378
-103 570 -168 64 -21 138 -41 165 -46 27 -4 68 -17 91 -29 29 -16 67 -24 135
-28 52 -4 148 -21 214 -37 110 -27 689 -127 795 -136 25 -2 205 -18 400 -35
l355 -31 555 5 c305 3 589 10 630 16 101 14 319 39 405 46 39 3 138 17 220 31
83 14 191 32 240 40 50 8 124 23 165 34 100 25 218 46 390 70 118 16 158 27
234 60 58 25 135 48 214 64 68 13 174 40 235 60 62 19 153 47 202 62 50 14
124 41 165 59 41 19 98 39 125 45 56 12 168 56 265 105 36 18 81 36 100 40 19
4 61 20 92 36 31 16 78 36 104 45 55 18 603 290 721 357 43 25 107 59 143 76
90 43 209 112 314 183 49 32 107 68 130 80 23 11 61 37 86 57 39 32 109 80
403 278 92 62 139 98 262 203 61 52 157 128 215 169 57 41 138 108 179 148 42
40 154 147 250 236 350 327 731 720 769 792 11 22 41 60 67 85 26 25 74 83
108 130 33 47 103 137 156 200 132 158 155 189 180 237 12 24 63 97 114 164
93 121 113 151 182 269 21 36 66 108 101 161 34 53 78 128 98 166 19 39 55 99
79 134 25 35 64 102 87 149 23 47 69 130 101 186 35 61 64 126 72 162 9 40 39
104 81 178 37 64 75 139 83 168 8 28 28 76 43 106 32 63 110 242 150 345 16
39 42 102 59 142 17 40 35 103 40 141 5 38 15 82 24 98 8 16 42 117 76 224 34
107 75 233 92 279 18 52 33 120 39 175 5 50 19 161 31 246 27 191 27 323 1
505 -11 77 -23 176 -27 220 -5 56 -16 101 -37 150 -43 100 -137 290 -162 328
-11 18 -37 64 -56 102 -24 49 -60 95 -118 154 -46 46 -101 107 -122 136 -24
33 -64 69 -106 95 -38 24 -89 66 -115 94 -26 28 -60 58 -75 66 -16 8 -83 45
-149 82 -65 38 -144 75 -175 84 -30 9 -80 25 -110 36 -159 58 -197 69 -311 88
-209 34 -415 27 -764 -25 -143 -22 -181 -31 -240 -60 -38 -19 -81 -37 -95 -41
-14 -4 -74 -35 -135 -69 -60 -34 -131 -71 -157 -83 -26 -11 -83 -54 -128 -96
-44 -42 -99 -85 -120 -96 -22 -11 -45 -30 -51 -42 -6 -12 -39 -51 -73 -88
-216 -234 -369 -546 -496 -1010 -18 -63 -47 -149 -66 -190 -20 -41 -40 -97
-45 -125 -21 -99 -80 -242 -225 -540 -113 -233 -268 -517 -351 -646 -45 -70
-90 -144 -101 -165 -11 -22 -51 -75 -87 -119 -37 -44 -94 -116 -126 -160 -32
-44 -67 -85 -78 -92 -11 -7 -44 -45 -74 -85 -116 -158 -788 -803 -942 -906
-38 -25 -123 -86 -188 -134 -64 -48 -150 -106 -190 -129 -39 -23 -137 -83
-216 -132 -210 -131 -566 -302 -736 -353 -43 -14 -98 -36 -121 -49 -23 -13
-90 -41 -150 -61 -60 -20 -140 -50 -179 -67 -38 -16 -101 -35 -140 -42 -38 -8
-104 -23 -145 -34 -64 -18 -157 -38 -455 -100 -222 -46 -412 -71 -655 -86
-314 -20 -543 -17 -890 13 -283 24 -359 35 -492 68 -53 13 -117 24 -143 24
-29 0 -67 10 -100 25 -30 14 -102 35 -162 46 -96 19 -146 32 -248 68 -208 72
-468 158 -538 177 -48 13 -100 32 -114 42 -15 9 -74 40 -132 67 -165 78 -397
202 -496 265 -49 32 -140 85 -202 118 -62 33 -150 89 -195 124 -46 36 -102 75
-125 86 -23 12 -68 45 -100 75 -32 29 -80 70 -108 92 -27 22 -80 67 -116 100
-36 33 -121 107 -189 165 -68 58 -140 123 -160 144 -19 22 -69 76 -111 120
-41 45 -86 95 -98 111 -13 17 -53 61 -89 100 -83 87 -171 191 -231 274 -25 35
-71 94 -102 130 -31 37 -64 81 -73 99 -9 18 -47 78 -85 135 -37 56 -103 167
-146 247 -42 80 -81 150 -85 155 -17 24 -200 384 -200 395 0 7 -22 62 -49 124
-55 126 -103 258 -121 331 -6 28 -24 79 -40 115 -16 36 -58 164 -95 285 -50
165 -81 250 -127 340 -33 66 -67 142 -75 170 -31 103 -182 326 -263 390 -28
22 -58 52 -66 67 -8 15 -35 41 -62 59 -26 18 -81 65 -122 104 -49 47 -88 76
-112 83 -20 5 -87 41 -149 78 -153 92 -416 186 -574 205 -49 6 -136 17 -192
25 -97 13 -145 15 -223 7z"/>
<path d="M64940 38075 c-188 -23 -274 -43 -372 -83 -53 -22 -123 -47 -156 -56
-63 -16 -129 -51 -215 -114 -29 -21 -81 -55 -117 -75 -106 -59 -231 -171 -388
-349 -143 -161 -192 -232 -192 -275 0 -11 -8 -31 -18 -44 -47 -60 -168 -330
-205 -454 -29 -100 -182 -537 -217 -620 -67 -160 -122 -310 -155 -419 -18 -64
-50 -153 -70 -199 -20 -45 -50 -127 -66 -182 -17 -55 -48 -138 -68 -185 -21
-47 -55 -130 -75 -185 -20 -55 -46 -122 -57 -148 -11 -27 -36 -101 -56 -165
-19 -64 -46 -137 -59 -162 -13 -24 -24 -54 -24 -66 0 -29 -81 -256 -124 -348
-19 -41 -42 -101 -50 -134 -9 -32 -25 -80 -37 -106 -11 -26 -56 -152 -99 -281
-90 -264 -140 -399 -174 -465 -13 -25 -41 -97 -61 -160 -21 -63 -55 -157 -76
-208 -21 -52 -48 -129 -60 -171 -23 -84 -148 -430 -181 -501 -11 -25 -40 -99
-63 -165 -24 -66 -52 -142 -64 -170 -11 -27 -30 -81 -41 -120 -36 -118 -89
-256 -127 -332 -23 -46 -38 -94 -43 -135 -5 -40 -24 -100 -53 -166 -25 -56
-68 -169 -96 -250 -27 -81 -75 -214 -106 -297 -31 -82 -78 -211 -104 -286 -26
-74 -60 -162 -75 -195 -15 -32 -58 -151 -96 -264 -37 -113 -95 -268 -127 -345
-33 -77 -65 -168 -72 -202 -12 -64 -46 -157 -79 -214 -11 -19 -25 -59 -32 -89
-18 -78 -71 -219 -123 -330 -28 -58 -48 -117 -52 -150 -4 -30 -17 -77 -30
-105 -13 -27 -37 -88 -53 -135 -17 -47 -51 -137 -77 -200 -26 -63 -63 -164
-82 -225 -20 -60 -45 -135 -55 -165 -11 -30 -48 -136 -82 -235 -35 -99 -76
-216 -93 -260 -17 -44 -44 -123 -61 -175 -16 -52 -57 -156 -90 -230 -57 -129
-84 -205 -171 -480 -35 -111 -109 -301 -192 -490 -15 -36 -35 -96 -44 -135 -8
-38 -31 -108 -50 -155 -19 -47 -61 -159 -94 -250 -93 -262 -126 -350 -159
-430 -17 -41 -47 -127 -68 -190 -20 -63 -52 -148 -70 -189 -19 -41 -41 -102
-50 -135 -23 -90 -39 -136 -104 -291 -32 -77 -65 -160 -73 -185 -9 -25 -23
-62 -32 -83 -9 -21 -34 -97 -56 -169 -22 -71 -49 -146 -59 -166 -11 -20 -20
-42 -20 -49 0 -24 -92 -288 -131 -373 -20 -47 -41 -98 -45 -115 -3 -16 -17
-54 -30 -83 -48 -106 -176 -496 -189 -575 -58 -346 -69 -524 -41 -688 8 -46
20 -121 26 -167 6 -46 24 -116 40 -155 16 -40 31 -89 35 -109 9 -45 168 -363
199 -398 13 -14 39 -48 57 -75 65 -97 105 -141 249 -276 141 -132 257 -218
390 -291 96 -53 298 -126 382 -139 40 -6 127 -22 193 -35 192 -38 316 -45 516
-29 313 26 546 95 775 231 71 42 148 85 172 96 23 11 64 44 90 73 26 29 72 73
102 98 31 25 76 71 100 103 24 33 71 90 103 128 33 39 79 99 102 135 55 86
199 364 215 416 7 22 21 57 32 79 11 21 24 66 29 100 5 33 23 88 38 121 31 64
98 251 126 350 10 33 26 78 38 100 20 41 86 223 163 450 24 72 61 168 83 215
21 47 50 133 64 192 15 62 45 150 73 210 26 57 62 148 80 203 43 130 127 364
141 390 6 11 25 58 41 105 17 47 58 162 92 255 34 94 84 238 112 320 56 167
141 387 195 504 19 42 45 114 58 161 13 47 35 114 50 150 41 97 155 410 155
426 0 23 56 184 95 274 20 47 52 132 71 190 19 58 43 121 53 140 10 19 26 62
36 95 25 90 88 266 140 389 25 60 55 141 67 180 11 39 34 96 49 126 16 31 33
78 38 105 12 60 32 120 99 286 28 69 58 153 66 187 9 33 31 96 50 139 18 43
59 150 90 238 32 88 76 205 98 260 22 55 59 161 82 235 24 74 55 160 70 190
32 64 106 264 106 286 0 9 16 51 35 95 19 44 47 121 61 172 14 50 36 112 49
137 12 25 50 129 85 230 34 102 72 205 85 230 12 25 33 79 45 120 12 41 46
138 75 215 82 217 155 423 180 505 12 41 32 98 45 125 12 28 39 100 60 161 22
60 59 157 83 215 24 57 52 138 62 179 10 41 38 125 63 185 24 61 59 148 78
195 19 47 41 100 50 118 8 18 29 78 45 133 34 113 196 553 235 639 13 30 29
81 34 114 5 32 13 63 18 70 23 29 122 298 226 611 24 72 55 153 69 180 13 28
42 104 62 170 21 66 51 149 67 185 16 35 40 108 53 160 25 98 37 131 85 235
29 63 90 237 90 258 0 7 10 30 22 52 12 22 41 96 66 165 86 247 120 337 180
485 33 83 66 179 72 215 6 35 20 77 31 92 32 44 66 129 94 234 15 55 42 144
61 199 33 100 62 250 85 440 23 200 -13 582 -65 682 -7 16 -24 62 -36 103 -12
41 -50 129 -85 195 -34 66 -70 144 -80 174 -13 39 -38 76 -94 140 -42 47 -92
105 -111 128 -19 23 -98 99 -174 169 -102 92 -156 134 -200 154 -34 15 -110
56 -171 90 -141 81 -241 121 -424 166 -260 63 -473 78 -711 49z"/>
<path d="M54489 37069 c-42 -4 -114 -17 -160 -28 -46 -10 -109 -23 -139 -26
-94 -12 -219 -60 -395 -151 -120 -62 -190 -106 -240 -149 -38 -33 -105 -89
-149 -124 -43 -35 -94 -86 -114 -113 -19 -27 -54 -64 -77 -82 -56 -42 -840
-811 -1103 -1081 -113 -115 -347 -350 -521 -521 -174 -170 -338 -332 -365
-360 -59 -60 -923 -925 -1009 -1009 -33 -33 -187 -188 -341 -345 -155 -157
-389 -392 -521 -521 -132 -129 -397 -395 -590 -590 -192 -195 -415 -418 -495
-495 -138 -133 -708 -709 -893 -904 -48 -50 -99 -113 -114 -138 -15 -26 -44
-72 -66 -104 -44 -64 -103 -187 -187 -394 l-58 -141 -16 -179 c-9 -98 -16
-241 -16 -318 0 -170 24 -435 50 -537 25 -104 127 -323 204 -439 35 -52 74
-115 86 -140 12 -25 43 -70 69 -100 25 -30 65 -79 89 -110 59 -76 532 -550
617 -618 80 -64 158 -141 300 -297 114 -126 369 -388 465 -479 35 -33 87 -85
115 -115 27 -29 92 -87 142 -128 51 -40 139 -126 195 -191 158 -179 711 -735
820 -823 53 -43 129 -116 170 -161 66 -74 105 -116 284 -308 115 -123 524
-520 589 -572 39 -31 104 -94 145 -140 261 -289 739 -771 870 -877 36 -29 96
-87 134 -129 38 -43 112 -122 165 -177 53 -55 119 -125 147 -155 27 -30 160
-162 295 -293 134 -132 323 -316 419 -411 178 -175 266 -242 420 -323 41 -22
84 -45 95 -51 88 -51 355 -149 429 -158 28 -3 121 -17 206 -31 130 -21 175
-24 280 -19 299 13 410 32 573 97 56 23 138 54 181 70 211 77 505 305 721 561
99 117 140 180 218 330 72 140 110 236 126 316 6 29 18 67 27 83 41 81 69 520
43 694 -5 39 -14 104 -19 145 -11 90 -69 249 -150 410 -32 63 -68 140 -79 170
-27 73 -62 127 -146 225 -37 44 -79 97 -93 118 -14 20 -47 54 -74 73 -26 20
-70 64 -96 99 -26 34 -106 118 -177 186 -186 177 -741 724 -800 789 -27 30
-158 161 -290 292 -132 130 -247 244 -255 252 -8 9 -87 89 -176 178 -88 90
-169 175 -180 189 -10 14 -41 41 -69 60 -27 20 -69 60 -92 90 -23 30 -139 149
-259 264 -120 116 -239 233 -264 260 -25 28 -114 118 -197 201 -84 83 -153
156 -153 161 0 6 -23 26 -51 44 -28 18 -68 55 -89 83 -21 28 -136 146 -256
261 -121 116 -246 239 -279 274 -56 60 -340 344 -437 437 -24 23 -66 65 -94
95 -28 30 -93 93 -146 141 -52 48 -103 103 -112 123 -15 31 -15 38 -2 63 8 15
45 53 82 83 37 30 122 106 188 169 121 114 668 660 738 735 34 38 274 275 697
690 100 99 213 214 250 255 38 41 185 190 327 330 142 140 348 342 458 450
109 107 222 222 252 256 49 56 394 400 786 784 196 192 144 141 444 445 251
254 356 372 461 518 29 39 69 95 89 122 20 28 46 70 56 95 11 25 39 86 63 135
23 50 52 122 64 160 11 39 35 115 53 170 l32 100 4 262 c3 209 0 279 -12 346
-22 115 -116 390 -175 512 -27 55 -56 125 -65 156 -18 64 -51 108 -209 287
-153 171 -313 297 -561 441 -179 104 -209 116 -476 182 -177 43 -436 59 -631
38z"/>
<path d="M70052 37069 c-39 -5 -110 -18 -156 -29 -46 -11 -90 -20 -97 -20 -8
0 -63 -21 -124 -46 -60 -25 -141 -57 -180 -71 -109 -40 -324 -170 -406 -245
-20 -18 -64 -57 -98 -87 -33 -29 -79 -77 -100 -106 -22 -29 -79 -95 -127 -146
-82 -88 -144 -187 -144 -230 0 -9 -11 -33 -25 -53 -35 -52 -64 -124 -135 -336
l-61 -185 -11 -200 c-5 -110 -7 -258 -5 -330 4 -113 9 -144 40 -240 19 -60 38
-126 42 -144 7 -32 50 -140 95 -236 10 -22 32 -70 49 -107 102 -229 268 -415
1036 -1163 367 -358 966 -958 1083 -1085 58 -63 126 -131 151 -151 48 -36 396
-382 797 -789 127 -129 356 -359 510 -510 153 -152 308 -306 344 -343 132
-135 496 -493 531 -522 21 -16 69 -68 108 -114 43 -52 94 -99 129 -122 97 -61
125 -135 83 -218 -19 -36 -92 -111 -110 -111 -12 0 -805 -796 -837 -840 -14
-19 -75 -80 -135 -135 -61 -55 -205 -197 -322 -315 -116 -118 -291 -294 -389
-391 -98 -97 -178 -180 -178 -185 0 -5 -53 -56 -117 -114 -111 -101 -220 -208
-487 -480 -68 -69 -143 -143 -167 -165 -51 -47 -167 -169 -224 -237 -22 -25
-123 -125 -225 -221 -173 -163 -661 -650 -906 -906 -60 -62 -132 -130 -159
-151 -28 -20 -71 -62 -95 -92 -24 -29 -60 -67 -80 -83 -19 -16 -61 -65 -92
-109 -32 -45 -83 -110 -113 -145 -31 -35 -74 -100 -97 -145 -22 -44 -49 -93
-59 -107 -22 -31 -111 -238 -128 -296 -6 -23 -25 -110 -42 -195 -43 -211 -50
-434 -20 -660 11 -87 27 -170 35 -186 8 -15 17 -46 21 -67 17 -96 87 -276 125
-320 9 -11 40 -67 68 -125 47 -96 65 -120 214 -285 105 -116 187 -196 229
-225 36 -25 94 -68 130 -96 94 -75 230 -154 296 -171 31 -8 75 -24 98 -35 86
-45 237 -88 373 -107 216 -31 296 -34 386 -17 51 10 103 13 150 9 49 -4 99 0
161 12 137 27 489 161 510 195 3 5 28 16 55 24 56 17 67 23 215 127 97 69 216
179 321 299 16 19 61 64 100 100 38 36 87 84 109 107 22 22 123 121 225 219
267 259 517 513 550 560 16 22 55 62 87 89 32 28 166 156 298 285 341 334 365
359 515 520 74 80 159 167 189 195 217 200 908 893 962 964 19 25 60 65 91 90
32 25 129 120 215 211 87 90 198 201 246 245 136 123 426 415 457 461 16 22
55 62 87 89 98 82 700 680 858 853 44 48 113 119 154 157 40 39 179 175 307
303 129 127 246 240 260 249 14 9 44 44 67 77 22 34 67 87 99 120 33 32 73 86
90 120 17 33 45 81 63 106 39 54 186 345 209 413 21 63 32 145 46 347 6 91 12
185 14 210 2 25 -3 140 -11 255 -13 181 -18 218 -40 270 -14 33 -33 87 -43
120 -38 129 -104 267 -180 380 -26 38 -60 89 -74 113 -38 61 -241 285 -387
428 -68 66 -149 147 -180 180 -31 32 -186 188 -345 346 -159 158 -812 811
-1451 1450 -639 640 -1331 1332 -1538 1538 -207 206 -434 434 -504 505 -71 72
-299 299 -507 507 -209 207 -438 436 -510 510 -325 330 -806 796 -878 849 -43
32 -97 64 -120 70 -22 6 -84 37 -138 69 -97 59 -279 132 -393 157 -172 38
-211 42 -431 46 -126 2 -262 0 -302 -4z"/>
</g>
</svg>
